<?xml version="1.0" encoding="utf-8"?>
<!-- Generator: Adobe Illustrator 24.2.1, SVG Export Plug-In . SVG Version: 6.00 Build 0)  -->
<svg version="1.1" xmlns="http://www.w3.org/2000/svg" xmlns:xlink="http://www.w3.org/1999/xlink" x="0px" y="0px"
	 viewBox="0 0 770.2 120" style="enable-background:new 0 0 770.2 120;" xml:space="preserve">
<style type="text/css">
	.st0{fill:#FFBC4A;stroke:#000000;stroke-width:2.5587;stroke-linecap:round;stroke-linejoin:round;stroke-miterlimit:10;}
	.st1{fill:#FFBC4A;}
	.st2{fill:#FFFFFF;}
	.st3{fill:#FF9D4A;}
	.st4{fill:#6D47D5;}
	.st5{opacity:0.3;}
	.st6{fill:#FF794A;}
	.st7{fill:#FF6D54;}
	.st8{fill:#FFEDD3;}
	.st9{display:none;}
</style>
<g id="Layer_1">
</g>
<g id="Layer_3">
	<g>
		<g>
			<path d="M665.1,97.4c0,0-22.7-3.2-36.3-1.4c-16.7,2.2,14.1,22,30.1,22c16,0,94-2.3,94-2.3c4.7,0,4.2-4.6,4.2-4.6L665.1,97.4z"/>
		</g>
		<g>
			<defs>
				<path id="SVGID_1_" d="M637,97.1l32.1,18.2l86.4-1.4L767.2,56c0-27.2-8.9-50.2-33.3-51.6C711,3.1,664,3.5,664,3.5
					c-30.5,0-33.8,37-33.8,37L637,97.1z"/>
			</defs>
			<use xlink:href="#SVGID_1_"  style="overflow:visible;fill:#98BE44;"/>
			<clipPath id="SVGID_2_">
				<use xlink:href="#SVGID_1_"  style="overflow:visible;"/>
			</clipPath>
			<g style="clip-path:url(#SVGID_2_);">
				
					<image style="overflow:visible;" width="195" height="149" xlink:href="815E8959.png"  transform="matrix(1 0 0 1 638.196 31.5771)">
				</image>
			</g>
			<g style="clip-path:url(#SVGID_2_);">
				
					<image style="overflow:visible;" width="176" height="164" xlink:href="815E895B.png"  transform="matrix(1 0 0 1 656.196 -74.4229)">
				</image>
			</g>
			<g style="clip-path:url(#SVGID_2_);">
				
					<image style="overflow:visible;" width="149" height="197" xlink:href="815E895E.png"  transform="matrix(1 0 0 1 551.196 3.5771)">
				</image>
			</g>
			<g style="clip-path:url(#SVGID_2_);">
				
					<image style="overflow:visible;" width="173" height="149" xlink:href="815E895F.png"  transform="matrix(1 0 0 1 554.196 -56.4229)">
				</image>
			</g>
		</g>
		<g>
			<path class="st0" d="M656.7,5.2c-10-1.1-25.7,15-27.3,35.7l7,55.9l32.7,18.3c0,0,9.7-32.7,12-58.9
				C683.5,29.6,669.8,6.6,656.7,5.2z M661.4,97.4L645,87.9l-2.7-31.4l22.1,8L661.4,97.4z M664,41.2l-21.4-7.4
				c2.3-11.9,8.2-16.4,13.6-15.2C666.7,20.8,664,41.2,664,41.2z"/>
		</g>
		<g>
			<path d="M669.1,116.5c-0.1,0-0.2,0-0.2,0c-0.7-0.1-1.2-0.8-1-1.5l10.8-59.1c1.2-28-7.7-46-24.4-49.6c-0.7-0.1-1.1-0.8-1-1.5
				c0.1-0.7,0.8-1.1,1.5-1c18.1,3.8,27.7,22.9,26.4,52.3c0,0.1,0,0.1,0,0.2l-10.8,59.2C670.3,116.1,669.7,116.5,669.1,116.5z
				 M680,56L680,56L680,56z"/>
		</g>
		<g id="XMLID_00000080904848549361397910000016791636749127652264_">
			<path d="M669.1,116.5c-0.2,0-0.4-0.1-0.6-0.2l-32.1-18.2c-0.3-0.2-0.6-0.5-0.6-0.9l-7.5-56.8c0-0.1,0-0.2,0-0.3
				c0-0.4,4.5-38,35.8-38c0.5,0,47.3-0.4,69.9,0.9c21.9,1.3,33.9,20,33.9,52.9c0,0.1,0,0.2,0,0.2l-11.1,57.6c-0.1,0.6-0.6,1-1.2,1
				L669.1,116.5C669.1,116.5,669.1,116.5,669.1,116.5z M638.2,96.3l31.3,17.7l85-1.7l10.9-56.4c0-22.1-5.5-48.7-31.5-50.2
				c-22.5-1.3-69.3-0.9-69.8-0.9c-28.3,0-32.9,32.7-33.2,35.6L638.2,96.3z"/>
		</g>
		<g>
			<path class="st1" d="M670.2,3.7c5.5,3.1,8.9,7.3,11.3,11.1c5.4,8.6,10.2,30.4,8.1,42.4c-2.5,13.4-9.2,57.8-9.2,57.8l-11.2,0.2
				c0,0,6.1-37.5,9-57.9c2.7-19.3-4-49.1-24-52c2.1-0.8,3-1.5,7.1-1.6C665.5,3.4,670.2,3.7,670.2,3.7z"/>
			<path d="M669.1,116.4c-0.4,0-0.7-0.2-1-0.4c-0.2-0.3-0.4-0.7-0.3-1c0.1-0.4,6.2-37.7,9-57.9c2.7-18.9-4-47.8-22.9-50.6
				c-0.6-0.1-1-0.5-1.1-1.1s0.3-1.1,0.8-1.3c0.3-0.1,0.7-0.3,0.9-0.4c1.6-0.6,2.9-1.2,6.6-1.3c4.2-0.1,8.8,0.1,9,0.1
				c0.2,0,0.4,0.1,0.6,0.2c6.2,3.4,9.6,8.2,11.7,11.5c5.5,8.8,10.5,30.9,8.2,43.3c-2.4,13.3-9.1,57.3-9.2,57.8
				c-0.1,0.6-0.6,1.1-1.2,1.1L669.1,116.4C669.1,116.4,669.1,116.4,669.1,116.4z M658.8,5c17.4,6.4,23.2,33.4,20.6,52.3
				c-2.5,17.9-7.6,49.2-8.8,56.4l8.6-0.1c1-6.9,6.8-44.6,9-56.8c2.1-11.5-2.7-33.1-7.9-41.5c-1.9-3-5-7.4-10.5-10.5
				c-1.1-0.1-5.1-0.2-8.5-0.1C660.3,4.9,659.5,4.9,658.8,5z"/>
		</g>
		<g>
			<path class="st1" d="M755.1,56.4c-3.7,19.3-9.9,57.4-9.9,57.4l10.3-0.2l11.7-57.9c0,0-2.5-47.9-19.6-50.4
				c-5.7-0.8-14.1-0.8-14.1-0.8c7.3,3.4,11.6,9.2,12.9,11.9c8.2,16.2,8.8,39.7,8.8,39.7"/>
			<path d="M745.2,115.1c-0.4,0-0.7-0.2-1-0.4c-0.3-0.3-0.4-0.7-0.3-1c0.1-0.4,6.3-38.3,9.9-57.4c0-0.1,0.1-0.3,0.1-0.4
				c-0.1-2.3-1.1-24-8.7-39c-1.4-2.7-5.5-8.2-12.3-11.3c-0.5-0.3-0.8-0.8-0.7-1.4c0.1-0.6,0.6-1,1.3-1c0.3,0,8.6,0,14.3,0.9
				c18,2.7,20.6,49.6,20.7,51.6c0,0.1,0,0.2,0,0.3l-11.7,57.9c-0.1,0.6-0.6,1-1.2,1L745.2,115.1
				C745.2,115.1,745.2,115.1,745.2,115.1z M756.4,56.6C756.4,56.6,756.3,56.6,756.4,56.6c-3.2,16.9-8.5,48.6-9.7,55.9l7.8-0.2
				l11.5-56.8c-0.2-3-3.1-46.7-18.6-49.1c-2.7-0.4-6.1-0.6-8.9-0.7c6,4.1,8.7,9.2,9,9.9c8.2,16.2,8.9,39.3,8.9,40.2
				C756.5,56.1,756.5,56.4,756.4,56.6z"/>
		</g>
		<g>
			<path d="M677.5,58.6c-0.1,0-0.3,0-0.4-0.1l-46.8-16.8c-0.7-0.2-1-1-0.8-1.6s1-1,1.6-0.8l46.6,16.7l88.5-1.4c0,0,0,0,0,0
				c0.7,0,1.3,0.6,1.3,1.3c0,0.7-0.6,1.3-1.3,1.3L677.5,58.6C677.5,58.6,677.5,58.6,677.5,58.6z"/>
		</g>
		<g>
			<path class="st2" d="M759.4,37.1c-0.6,0-1.1-0.4-1.3-1c-2.1-10.7-6.7-20.1-6.8-20.2c-0.3-0.6-0.1-1.4,0.6-1.7
				c0.6-0.3,1.4-0.1,1.7,0.6c0.2,0.4,4.9,9.8,7,20.8c0.1,0.7-0.3,1.4-1,1.5C759.6,37.1,759.5,37.1,759.4,37.1z"/>
		</g>
		<g>
			<path class="st2" d="M760.4,42.6c-0.6,0-1.2-0.5-1.3-1.1l-0.1-0.7c-0.1-0.7,0.4-1.3,1.1-1.4c0.7-0.1,1.3,0.4,1.4,1.1l0.1,0.7
				c0.1,0.7-0.4,1.3-1.1,1.4C760.5,42.6,760.5,42.6,760.4,42.6z"/>
		</g>
		<g>
			<g>
				<path class="st3" d="M732.9,77.8l-19.3,4.5c-1.5,0.6-12.9-8.3-12.9-11V45.8c0-7.1,5.8-12.9,12.9-12.9h13.5
					c4.6,0.3,14.4,8.8,14.4,11.4l-3.7,28.6C737.7,75.6,735.6,77.8,732.9,77.8z"/>
				<path d="M713.4,83.6c-0.7,0-1.8-0.4-3.9-1.8c-2-1.3-10.2-7.4-10.2-10.5V45.8c0-7.8,6.4-14.2,14.2-14.2h13.5
					c5,0.4,15.6,9,15.6,12.7c0,0.1,0,0.1,0,0.2L739,73c0,3.3-2.7,6-6,6.1l-19,4.4C713.8,83.6,713.6,83.6,713.4,83.6z M713.1,81.1
					C713.1,81.1,713.1,81.1,713.1,81.1C713.1,81.1,713.1,81.1,713.1,81.1z M713.5,81L713.5,81L713.5,81z M727,34.2l-13.4,0
					c-6.4,0-11.6,5.2-11.6,11.6v25.5c0.3,1.9,9.3,9.2,11.4,9.7l19.2-4.5c0.1,0,0.2,0,0.3,0c2,0,3.6-1.6,3.6-3.6c0-0.1,0-0.1,0-0.2
					l3.7-28.5C739.9,42.5,731.3,34.5,727,34.2z"/>
			</g>
			<g>
				<path class="st1" d="M732.3,83.3h-14.6c-6,0-10.8-4.8-10.8-10.8V49.2c0-6,4.8-10.8,10.8-10.8h14.6c6,0,10.8,4.8,10.8,10.8v23.3
					C743.1,78.5,738.2,83.3,732.3,83.3z"/>
			</g>
			<g>
				<g>
					<polygon class="st4" points="725.8,44.5 716.4,60.2 726,66.1 735.4,60.4 					"/>
				</g>
				<g>
					<polygon class="st4" points="735.5,62.3 725.9,67.9 716.5,62.3 725.9,75.8 					"/>
				</g>
			</g>
			<g>
				<path class="st2" d="M737.1,52c-0.7,0-1.3-0.5-1.3-1.2c-0.1-3.2-0.1-6.1-0.1-6.1c0-0.7,0.6-1.3,1.3-1.3c0,0,0,0,0,0
					c0.7,0,1.3,0.6,1.3,1.3c0,0,0,2.9,0.1,6C738.4,51.4,737.9,52,737.1,52C737.2,52,737.1,52,737.1,52z"/>
			</g>
			<g>
				<path class="st2" d="M737.3,57.3c-0.7,0-1.3-0.6-1.3-1.3v-0.2c0-0.7,0.6-1.3,1.3-1.3s1.3,0.6,1.3,1.3v0.2
					C738.5,56.8,738,57.3,737.3,57.3z"/>
			</g>
			<g class="st5">
				<path class="st6" d="M711.7,39.3c0,1.9-2.7,33.2,3.5,37.7c4.4,3.2,27.1,1.8,27.1,1.8c-0.2,4.4-0.5,5.9-16.5,4.6
					s-19-4.3-19.2-14.5s0.1-19.4,0.1-19.4C706.9,41.8,711.7,39.3,711.7,39.3z"/>
			</g>
			<g>
				<path d="M732.3,84.6h-14.6c-6.7,0-12.1-5.4-12.1-12.1V49.2c0-6.7,5.4-12.1,12.1-12.1h14.6c6.7,0,12.1,5.4,12.1,12.1v23.3
					C744.4,79.2,738.9,84.6,732.3,84.6z M717.7,39.7c-5.2,0-9.5,4.3-9.5,9.5v23.3c0,5.2,4.3,9.5,9.5,9.5h14.6c5.2,0,9.5-4.3,9.5-9.5
					V49.2c0-5.2-4.3-9.5-9.5-9.5H717.7z"/>
			</g>
		</g>
		<g>
			<path class="st2" d="M719.8,11.6C719.8,11.6,719.8,11.6,719.8,11.6c-8.9-0.5-20.7-0.6-20.8-0.6c-0.7,0-1.3-0.6-1.3-1.3
				c0-0.7,0.6-1.3,1.3-1.3c0,0,0,0,0,0c0.1,0,12,0.1,20.9,0.6c0.7,0,1.2,0.6,1.2,1.3C721.1,11.1,720.5,11.6,719.8,11.6z"/>
		</g>
		<g>
			<path class="st2" d="M725.2,11.7h-0.7c-0.7,0-1.3-0.6-1.3-1.3s0.6-1.3,1.3-1.3h0.7c0.7,0,1.3,0.6,1.3,1.3S725.9,11.7,725.2,11.7z
				"/>
		</g>
	</g>
	<g>
		<g>
			<g>
				<rect x="581.7" y="57.6" width="7.4" height="14.7"/>
			</g>
			<g>
				<rect x="578.8" y="91.5" width="10.7" height="14.3"/>
			</g>
			<g>
				<rect x="537" y="63.5" width="15.7" height="15.1"/>
			</g>
			<g>
				<rect x="488.2" y="76" width="12.4" height="17.3"/>
			</g>
			<g>
				<rect x="361.1" y="61" width="10.6" height="15.5"/>
			</g>
			<g>
				<rect x="307.8" y="68" width="18.6" height="29.6"/>
			</g>
			<g>
				<g>
					<path d="M312.5,95.3c0-1.3,0.3-2,0.9-2.2c0.6-0.2,1-0.3,1.3-0.3c0.6,0,1.2,0.3,1.8,1c5.4,4.7,12,7,19.9,7c2.8,0,5-0.4,6.4-1.3
						c1.4-0.9,2.2-2.1,2.2-3.7c0-1.3-0.7-2.4-2.2-3.4c-1.5-1-3.3-1.8-5.6-2.4c-2.2-0.6-4.7-1.4-7.3-2.3c-2.6-1-5.1-2-7.3-3.1
						c-2.2-1.1-4.1-2.7-5.6-4.8c-1.5-2.1-2.2-4.6-2.2-7.4c0-11,8.8-16.5,26.4-16.5c8.4,0,15.8,0.9,22.2,2.8c1.1,0.5,1.7,1.2,1.8,2.3
						c0.1,0.9,0.2,3,0.5,6.4c0.3,3.4,0.4,5.9,0.5,7.5c0,0.1,0,0.1,0,0.3c0,1.2-0.3,1.9-0.8,2.1c-0.5,0.3-0.9,0.4-1.2,0.4
						c-0.5,0-1-0.3-1.6-0.9c-4.7-3.2-9.9-4.8-15.6-4.9c-0.2,0-0.4,0-0.6,0c-2.7,0-5,0.4-6.9,1.1c-1.9,0.7-2.8,1.8-2.8,3.2
						c0,1.4,1.1,2.7,3.4,3.6c2.3,1,5,1.9,8.3,2.7c3.2,0.8,6.5,1.8,9.7,3c3.3,1.2,6,3,8.3,5.4c2.2,2.4,3.4,5.5,3.4,9
						c-0.1,5.7-2.6,10.1-7.6,13.2c-5,3.1-12,4.6-21.1,4.6c-3.7,0-8.1-0.3-13.2-1c-5.1-0.7-9.5-1.6-13.1-2.7
						c-1.1-0.4-1.6-1.3-1.6-2.6C312.7,105.1,312.5,99.7,312.5,95.3z"/>
				</g>
				<g>
					<path d="M369.7,58.9c0.2-1.4,1-2.1,2.5-2.2c4.3-0.2,12.7-0.3,25.3-0.3c12.6,0,21,0.1,25.2,0.3c1.5,0.1,2.3,0.9,2.5,2.2
						c0.5,5.8,0.8,12.1,0.8,18.8c0,1.2-0.3,1.8-0.8,2c-0.5,0.2-0.9,0.3-1.2,0.3c-0.5,0-1-0.3-1.4-0.8c-5.3-4.3-9.5-6.4-12.4-6.4
						c-1.2,0-2.1,0.4-2.6,1.1c-0.5,0.7-0.8,1.6-0.8,2.5c0,0.5,0.1,1,0.2,1.5c2.1,20.5,3.3,32.6,3.8,36.3c0,0.1,0,0.2,0,0.3
						c0,0.6-0.2,1.1-0.6,1.6c-0.4,0.5-1,0.8-1.8,0.9c-1.8,0.2-5.3,0.3-10.6,0.3c-4.9,0-8.5-0.1-10.9-0.3c-0.7-0.1-1.3-0.3-1.8-0.9
						c-0.4-0.5-0.6-1.1-0.6-1.6c0-0.1,0-0.2,0-0.3c0.6-4.8,1.8-16.9,3.8-36.3c0.1-0.5,0.1-0.9,0.1-1.3c0-1-0.3-1.9-0.8-2.7
						c-0.5-0.7-0.9-0.8-2.1-0.8c-3.1,0-7.3,2.1-12.6,6.4c-0.5,0.5-1.4,0.4-1.8,0.4c-0.3,0-0.7-0.1-1.2-0.3c-0.5-0.2-0.8-1-0.8-2.2
						C369.1,69.2,369.4,63,369.7,58.9z"/>
				</g>
				<g>
					<path d="M421.6,114.4c1.7-9.7,4.2-19.8,7.5-30.2c3.3-10.4,6.6-19.1,9.9-26.1c0.3-0.8,1-1.3,2.1-1.5c2.1-0.2,6.3-0.3,12.4-0.3
						c6.2,0,10.5,0.1,12.7,0.3c1.1,0.2,1.8,0.7,2.1,1.5c3.3,6.9,6.6,15.6,9.9,26c3.3,10.4,5.8,20.5,7.4,30.4
						c0.1,0.2,0.1,0.4,0.1,0.6c0,0.5-0.2,1-0.5,1.4c-0.3,0.4-0.9,0.6-1.6,0.7c-2.2,0.2-5.6,0.3-9.9,0.3c-4.1,0-7.3-0.1-9.6-0.3
						c-0.6-0.1-1.2-0.4-1.6-0.8c-0.4-0.4-0.6-0.9-0.6-1.5c0-0.1,0-0.2,0-0.3c0.1-1.1,0.1-2.2,0.1-3.3c0-1.8-0.1-3.7-0.3-5.4
						c-0.5-2.8-2.6-4.3-6.4-4.4H452c-3.7,0.1-5.8,1.6-6.3,4.4c-0.2,1.6-0.3,3.3-0.3,5c0,1.3,0.1,2.5,0.2,3.8c0,0.1,0,0.1,0,0.2
						c0,0.6-0.2,1.1-0.6,1.5c-0.4,0.4-1,0.7-1.6,0.8c-2.3,0.2-5.8,0.3-10.4,0.3c-2.9,0-6-0.1-9.1-0.3c-0.8-0.1-1.4-0.4-1.7-0.8
						c-0.3-0.4-0.5-0.9-0.5-1.4C421.5,114.8,421.6,114.6,421.6,114.4z M449.9,92c0.6,0.6,1.6,1,2.9,1h1.6c2.4-0.1,3.5-0.9,3.5-2.4
						c0-0.3-0.1-0.7-0.2-1.1c-0.5-3.7-1.4-8.3-2.9-13.9c-0.4-1.4-0.9-2.1-1.4-2.1s-1,0.7-1.5,2.1c-1.3,5.4-2.2,10-2.8,13.9
						c-0.1,0.3-0.2,0.7-0.2,1C449.2,91,449.4,91.6,449.9,92z"/>
				</g>
				<g>
					<path d="M487.7,95.3c0-1.3,0.3-2,0.9-2.2c0.6-0.2,1-0.3,1.3-0.3c0.6,0,1.2,0.3,1.8,1c5.4,4.7,12,7,19.9,7c2.8,0,5-0.4,6.4-1.3
						c1.4-0.9,2.2-2.1,2.2-3.7c0-1.3-0.7-2.4-2.2-3.4c-1.5-1-3.3-1.8-5.6-2.4c-2.2-0.6-4.7-1.4-7.3-2.3c-2.6-1-5.1-2-7.3-3.1
						c-2.2-1.1-4.1-2.7-5.6-4.8c-1.5-2.1-2.2-4.6-2.2-7.4c0-11,8.8-16.5,26.4-16.5c8.4,0,15.8,0.9,22.2,2.8c1.1,0.5,1.7,1.2,1.8,2.3
						c0.1,0.9,0.2,3,0.5,6.4c0.3,3.4,0.4,5.9,0.5,7.5c0,0.1,0,0.1,0,0.3c0,1.2-0.3,1.9-0.8,2.1c-0.5,0.3-0.9,0.4-1.2,0.4
						c-0.5,0-1-0.3-1.6-0.9c-4.7-3.2-9.9-4.8-15.6-4.9c-0.2,0-0.4,0-0.6,0c-2.7,0-5,0.4-6.9,1.1c-1.9,0.7-2.8,1.8-2.8,3.2
						c0,1.4,1.1,2.7,3.4,3.6c2.3,1,5,1.9,8.3,2.7c3.2,0.8,6.5,1.8,9.7,3c3.3,1.2,6,3,8.3,5.4c2.2,2.4,3.4,5.5,3.4,9
						c-0.1,5.7-2.6,10.1-7.6,13.2c-5,3.1-12,4.6-21.1,4.6c-3.7,0-8.1-0.3-13.2-1c-5.1-0.7-9.5-1.6-13.1-2.7
						c-1.1-0.4-1.6-1.3-1.6-2.6C487.9,105.1,487.8,99.7,487.7,95.3z"/>
				</g>
				<g>
					<path d="M547.8,114.6c0-24.1,0.7-42.7,2.2-55.7c0.2-1.3,1-2,2.6-2.2c2.1-0.2,4.6-0.3,7.5-0.3c4,0,7.1,0.1,9.2,0.3
						c0.8,0.1,1.4,0.4,1.8,0.9c0.4,0.5,0.6,1,0.6,1.6c0,0.1,0,0.3,0,0.4c-0.7,5.4-1.1,10.7-1.1,16c0,3.2,1.9,4.8,5.7,4.8
						c0.5,0.1,1,0.1,1.6,0.1c0.5,0,1,0,1.6-0.1c3.8,0,5.7-1.6,5.7-4.8c0-2.6-0.3-8-1-16c0-0.2,0-0.3,0-0.4c0-1.4,0.8-2.3,2.4-2.6
						c1.6-0.2,4.7-0.3,9.2-0.3c2.7,0,5.2,0.1,7.4,0.3c1.6,0.3,2.4,1.1,2.6,2.3c1.5,13,2.2,31.6,2.2,55.7c0,0.7-0.2,1.3-0.7,1.7
						c-0.5,0.4-1.1,0.7-1.9,0.8c-2.2,0.2-5.3,0.3-9.2,0.3c-4.5,0-7.8-0.1-9.9-0.3c-1.6-0.2-2.4-1-2.4-2.4c0-0.2,0-0.3,0-0.5
						c0.8-8.4,1.2-13.7,1.2-16c0-3.2-1.9-4.8-5.6-4.9h-3.3c-3.6,0.1-5.4,1.8-5.4,4.9c0,3.5,0.4,8.8,1.2,16c0,0.2,0,0.3,0,0.4
						c0,0.7-0.2,1.3-0.6,1.7c-0.4,0.4-1,0.7-1.8,0.8c-2.2,0.2-5.6,0.3-10.1,0.3c-3.8,0-6.8-0.1-9.1-0.3c-0.7-0.1-1.4-0.4-1.9-0.8
						C548.1,115.9,547.8,115.3,547.8,114.6z"/>
				</g>
			</g>
			<g>
				<path d="M230.1,10.9c-3.6,0.6-5.1,2.3-6,4.4s-0.9,4.2,0.1,6.6c0,0-5.9-0.3-7.3,6.3c-1.4,6.6,5.2,9,7.3,8.6
					c-1.6,2.6-1.1,7.7,1.4,9.5s4.4,2.4,9.3,2c4.9-0.4,15.4-0.8,15.4-0.8c2.2,0.1,4.2-4.1,3.8-7.2c-0.4-3.1-4.8-19.4-12.5-24.9
					C233.9,10,230.1,10.9,230.1,10.9z"/>
			</g>
			<g>
				<path d="M65,17.3c-1.4,0.6-2,2-2.9,4.2s-1.2,3.1-0.5,4.5s1.1,5.5,5.4,8.4c2.7,1.8,5.8,2.3,5.8,2.3s-4.8,2.9-4.4,10.9
					c0.2,3.1,0.2,3.9,0.9,4.5c0.7,0.7,2.2,1.7,6.8-0.9c4.6-2.5,11.5-4.4,11.5-4.4s10,6.4,13.2,6.2c1.1-0.1,4.2-4.5,4.2-6.9
					c0.1-4.9-4.6-10.6-2.5-11.6c3.2-1.5,6.5-6.6,6.9-10.2c0.4-3.6,0.3-5.5-2.1-6.2c-2.5-0.8-7.5,1.9-8.6,4
					c-1.1,2-14.7-15.1-17.4-12.8c-2.7,2.3-4.1,5.2-4.3,8.6"/>
			</g>
			<g>
				<path d="M263.2,46.7c-5,3-11.2,10.8-11.2,10.8c-1.5,2.6-1.5,8.6-1.5,8.6c-2.4,41.9,0.9,47.7,0.9,47.7c1.5,3.5,2.4,4.1,4.8,4.3
					c2.3,0.2,46,0.2,50.5-0.1c4.5-0.3,5.7-1,5.8-3.8c0.1-2.8-0.7-14.7,0.1-21.7c0.8-7,0.9-15.5-0.8-26.4
					c-1.7-10.9,2.3-16.5-7.6-18.2S263.2,46.7,263.2,46.7z"/>
			</g>
			<g>
				<path d="M231.8,47.1c-3.4,1.5-5.2,3.9-6.8,5.9c-1.6,2-1.7,3-1.7,5.7s-2,49.3-1.6,53.7s1.7,5.4,5.2,5.7
					c3.5,0.3,14.8-0.1,16.9-0.1c2,0.1,3.2,0.1,4.8-1.5c1.6-1.6,7.6-7.4,7.6-7.4s1.9-58.4-3.6-60.6C246.9,46.4,231.8,47.1,231.8,47.1
					z"/>
			</g>
			<g>
				<path d="M221.6,77.2c-1.8,7.6-7.1,13.3-15.9,17.1c-7.4,3.1-16.5,2.9-16.9,2.9l8.6,10.7c0.6,1.6-5.8,6.3-7.2,7.6
					c-1,0.9-1.8,2.1-3.2,2.4c-1.4,0.3-5.8,0.6-10.4,0.6c-4.8,0-9.8-0.2-12.2-0.8c-3.3-0.8-3.9-4-3.8-5.7c-0.2-32.3,1.9-54.1,2-54.3
					l0,0c0.4-4.9,8.3-11.8,11-11.9c3.2-0.1,17.9,5.9,24.4,6.1c10.5,0.4,21.7,4.7,23.9,15.2C222.5,70.9,221.6,77.2,221.6,77.2z"/>
			</g>
			<g>
				<path d="M127,97.2c0.4,0,10.6,0.6,18-2.6c11.3-4.8,17-13.3,16.7-24.4c-0.4-12.9-14-17.9-25.5-18.4c-6.6-0.3-21.6-6.2-24.8-6
					c-3.1,0.2-10.2,7.3-10.7,11.8l0,0c0,0.2-2.2,22-2,54.3c-0.1,1.7,0.5,4.9,3.8,5.7c2.4,0.6,7.5,0.8,12.2,0.8c4.7,0,8.6-0.1,10-0.3
					c1.8-0.2,3.8-1,4.6-2.1c0.9-1.3,4.5-4.9,5.3-7.3L127,97.2z"/>
			</g>
			<g>
				<path d="M94.9,59.4c-0.2-2.5-0.4-5.8-4.6-6.7c-3.8-0.8-6.7-7.1-9.5-6.9C76.6,46,69.6,53.5,69.3,58c-0.9,12.9-2.2,39.7-2.1,54
					c0,4.4,2.2,5.5,5.7,5.9c1.7,0.2,5.6,0.2,9.3,0.2c3.8,0,7.3-0.1,7.9-0.1c0.1,0,0.3,0,0.5,0c1.5,0,8-0.3,9.9-7.4
					C103.8,98.1,94.9,59.9,94.9,59.4L94.9,59.4z"/>
			</g>
			<g>
				<path d="M38.2,52.9c-8.7-1.6-23.6-7-24.4-6.9c-2,0.1-9.2,6.7-10.2,10.4c-1.3,5.2-2.6,51-2.4,56.5c0.1,3.6,2.5,5.2,4.7,5.2
					c0.1,0,0.9,0.1,1.7,0.1c6.8,0.5,12.8,0.7,18.1,0.7c9.6,0,16.9-0.8,21.8-2.3c14.3-4.6,19.8-13.8,18.8-32
					C65,59.2,42.7,53.8,38.2,52.9z"/>
			</g>
			<g>
				<g>
					<path class="st1" d="M262.2,50.3c0.6-2.3,1.4-3.2,4-3.4c2.7-0.2,34.4-0.8,42.8-0.2c3.9,0.3,4.8,2.1,4.8,4.3s0.8,13.5,0.6,16.8
						c-0.2,3.3-3.3,3.6-5.1,2.4c-2.6-1.8-7.2-5.9-18.2-5.8c-7.1,0.1-6.5,3.7-6.5,3.9c0,0.2,0.4,3.1,7.1,2.8s10-0.3,11.9-0.5
						c1.9-0.2,4.1,0.9,4.2,3.2c0.2,2.3,0.3,5.6,0,7.9c-0.3,2.3-2.8,3-4.5,2c-2.3-1.4-8.2-2.9-12-2.7c-3.8,0.2-6.8,1.2-6.8,4.8
						c0,3.9,2.3,5.9,9.1,6.2c6.8,0.3,12.7-0.7,17.4-7.7c2.7-4.6,6.6-1.9,7,0.2c0.4,2.2,1.3,16.2,1.3,20.7c0.1,4.5-2.7,4.2-4,4.3
						c-1.9,0.2-31.5,1-51.1-0.2c-4.9-0.2-4.5-3-4.4-5.4C260,101.5,261.4,53.6,262.2,50.3z"/>
					<path d="M291.9,111.3c-9.2,0-19.4-0.2-27.7-0.7c-5.9-0.3-5.7-4.1-5.6-6.4l0.1-1.6c0.7-22.6,1.7-50.1,2.3-52.8
						c0.7-2.9,2.1-4.1,5.2-4.3c2.6-0.2,34.6-0.8,43-0.2c4,0.3,6,2.2,6,5.6c0,0.8,0.1,2.7,0.2,4.9c0.2,4.3,0.5,9.8,0.4,11.9
						c-0.1,1.8-1,3.1-2.3,3.8c-1.5,0.7-3.3,0.5-4.8-0.4c-0.3-0.2-0.6-0.4-0.9-0.6c-0.1,0-0.1-0.1-0.2-0.1c0.9,0.8,1.4,1.9,1.5,3.1
						c0.2,2.7,0.3,5.9,0,8.2c-0.2,1.4-1,2.5-2.2,3.1c-1.3,0.6-2.9,0.6-4.2-0.2c-2-1.2-7.6-2.8-11.3-2.5c-4.9,0.3-5.6,1.9-5.6,3.5
						c0,2.3,0.6,4.6,7.9,5c6.9,0.3,12-0.8,16.3-7.1c1.9-3.3,4.4-3.2,5.4-3c1.9,0.3,3.6,2,3.9,3.7c0.4,2.3,1.3,16.4,1.4,20.9
						c0.1,5.2-3.2,5.5-4.7,5.6c-0.1,0-0.3,0-0.4,0C314.4,111,304.1,111.3,291.9,111.3z M294.7,47.7c-12,0-26.5,0.3-28.3,0.4
						c-2.1,0.2-2.5,0.6-2.9,2.4c-0.5,1.9-1.3,21.4-2.3,52.2l-0.1,1.6c-0.1,2.4-0.1,3.6,3.2,3.7c19.8,1.3,49.2,0.5,50.9,0.2
						c0.2,0,0.3,0,0.5-0.1c1.4-0.1,2.3-0.2,2.3-3c-0.1-4.7-1-18.5-1.3-20.5c-0.1-0.6-0.9-1.5-1.8-1.7c-1.3-0.2-2.2,0.9-2.8,1.9
						c-5,7.4-11,8.6-18.6,8.3c-4.8-0.2-10.3-1.3-10.4-7.5c0-5.6,6-5.9,8-6.1c4-0.2,10.2,1.3,12.7,2.9c0.6,0.3,1.3,0.4,1.8,0.1
						c0.5-0.2,0.7-0.6,0.8-1.2c0.3-2.4,0.1-5.9,0-7.7c0-0.6-0.3-1-0.7-1.4c-0.5-0.5-1.4-0.7-2.2-0.6c-1,0.1-2.3,0.1-4.3,0.2
						c-1.9,0.1-4.3,0.1-7.6,0.3c-3.4,0.2-5.9-0.4-7.3-1.8c-0.8-0.8-1.1-1.7-1.1-2.3c-0.1-1.4,0.5-2.5,1.1-3c1.3-1.4,3.5-2.1,6.7-2.1
						c0.1,0,0.2,0,0.4,0c10.1,0,14.9,3.4,17.7,5.4c0.3,0.2,0.6,0.4,0.9,0.6c0.7,0.4,1.6,0.5,2.2,0.2c0.5-0.3,0.8-0.8,0.9-1.7
						c0.1-2-0.1-7.6-0.4-11.6c-0.1-2.4-0.2-4.2-0.2-5c0-1.4-0.3-2.8-3.6-3C306.2,47.8,300.8,47.7,294.7,47.7z M304,69.3
						c1,0,2,0.2,2.8,0.7c-2.7-1.9-7.1-4.3-15.3-4.3c-0.1,0-0.2,0-0.3,0c-3.2,0-4.4,0.8-4.8,1.3c-0.5,0.5-0.4,1-0.4,1.2l0,0
						c0.1,0.5,1.4,1.8,5.7,1.6c3.3-0.2,5.8-0.2,7.6-0.3c2-0.1,3.3-0.1,4.2-0.2C303.7,69.3,303.9,69.3,304,69.3z M286,68.2L286,68.2
						C286,68.3,286,68.3,286,68.2z"/>
				</g>
				<g>
					<path class="st2" d="M312.3,106.2c-0.9,0-1.7-0.7-1.7-1.6l-0.5-11.9c0-0.9,0.7-1.7,1.6-1.8c0.9,0,1.7,0.7,1.8,1.6l0.5,11.9
						C314,105.4,313.3,106.2,312.3,106.2C312.3,106.2,312.3,106.2,312.3,106.2z"/>
				</g>
				<g>
					<path class="st2" d="M301.3,79.5c-0.9,0-1.7-0.7-1.7-1.6l-0.1-2.3c0-0.9,0.7-1.7,1.6-1.8c1,0,1.7,0.7,1.8,1.6l0.1,2.3
						C303.1,78.7,302.3,79.5,301.3,79.5C301.4,79.5,301.3,79.5,301.3,79.5z"/>
				</g>
				<g>
					<path class="st2" d="M307.9,64.7c-0.9,0-1.6-0.7-1.7-1.6l-0.3-5.2c-0.1-0.9,0.7-1.8,1.6-1.8c0.9,0,1.8,0.7,1.8,1.6l0.3,5.2
						c0.1,0.9-0.7,1.8-1.6,1.8C307.9,64.7,307.9,64.7,307.9,64.7z"/>
				</g>
				<g>
					<path class="st2" d="M307.1,53.9c-0.9,0-1.6-0.7-1.7-1.6l0-0.6c-0.1-0.9,0.6-1.8,1.6-1.8c0.9-0.1,1.8,0.6,1.8,1.6l0,0.6
						c0.1,0.9-0.6,1.8-1.6,1.8C307.2,53.9,307.2,53.9,307.1,53.9z"/>
				</g>
			</g>
			<g>
				<g>
					<path class="st1" d="M231,50.1c0.3-1.8,2.1-3,4.8-3.4s13.1-0.5,16.1,0.2c2.4,0.6,2.9,2.2,3.1,4.3c0.2,2.2,2.4,31.9,1.9,54.6
						c-0.2,3.1-2.7,3.8-4,4c-1.6,0.2-15.1,1-20-0.2c-1.9-0.5-2.7-1.6-2.8-4C229.9,103.3,229.6,60.2,231,50.1z"/>
					<path d="M241.9,111.5c-3.6,0-7.1-0.2-9.2-0.7c-3.1-0.8-3.7-3.3-3.8-5.1c-0.1-1.8-0.5-45.5,0.9-55.7v0c0.3-2.3,2.5-4,5.9-4.5
						c2.8-0.4,13.4-0.6,16.6,0.2c3.3,0.8,3.9,3.3,4.1,5.4c0,0.3,2.4,31.2,1.9,54.7c-0.2,2.9-2,4.8-5.1,5.2
						C252.3,111.1,247.1,111.5,241.9,111.5z M232.3,50.3c-1.4,10.2-1,53.4-0.9,55.2c0.2,2,0.8,2.5,1.9,2.8
						c4.6,1.1,17.9,0.4,19.5,0.2c2.5-0.3,2.8-1.7,2.9-2.8c0.5-23.3-1.8-54.1-1.9-54.4c-0.2-2-0.7-2.8-2.1-3.1
						c-2.9-0.7-13.1-0.6-15.6-0.2C233.8,48.3,232.4,49.2,232.3,50.3L232.3,50.3z"/>
				</g>
				<g>
					<path class="st2" d="M248.1,58c-0.9,0-1.7-0.7-1.7-1.6l-0.1-1.6c0-0.9,0.7-1.7,1.6-1.8c1-0.1,1.7,0.7,1.8,1.6l0.1,1.6
						C249.9,57.2,249.1,58,248.1,58C248.2,58,248.1,58,248.1,58z"/>
				</g>
				<g>
					<path class="st2" d="M249.6,97.9C249.6,97.9,249.5,97.9,249.6,97.9c-1,0-1.8-0.8-1.7-1.8c0.1-1.4-0.5-21.6-1.3-32.7
						c-0.1-0.9,0.6-1.8,1.6-1.8c0.9-0.1,1.8,0.6,1.8,1.6c0.8,11.3,1.3,31.4,1.3,33.1C251.3,97.1,250.5,97.9,249.6,97.9z"/>
				</g>
			</g>
			<g>
				<g>
					<path class="st1" d="M170.9,50.7c0.4-3.4,1.7-3.8,4.7-4c3-0.2,22.8-0.8,29.5-0.6c9.2,0.4,22.7,4.3,23.1,17.3
						c0.3,11.4-5.9,18.5-15.8,22.7c-7.2,3.1-16.4,2.8-16.4,2.8c-2.1-0.1-2-0.2-2,1.7c0,1.7,1.7,11.4,2.5,13.5
						c0.7,2.2,0.1,4.9-2.6,5.5c-2.7,0.7-17.6,0.8-22.1-0.3c-3.2-0.7-2.8-4.4-2.8-4.4C168.8,72.3,170.9,50.7,170.9,50.7z"/>
					<path d="M183.7,111.5c-4.8,0-9.8-0.2-12.2-0.8c-3.3-0.8-3.9-4-3.8-5.7c-0.2-32.3,1.9-54.1,2-54.3l0,0c0.5-4.5,2.8-5,5.9-5.2
						c3.3-0.2,22.9-0.8,29.6-0.6c11.5,0.5,23.9,5.6,24.3,18.5c0.3,11.1-5.2,19.1-16.6,23.9c-7.4,3.1-16.5,2.9-16.9,2.9l-0.3,0
						c-0.1,0-0.3,0-0.4,0c0,0.1,0,0.2,0,0.3l0,0.2c0,1.5,1.7,11,2.4,13.1c0.6,1.6,0.5,3.4-0.3,4.8c-0.7,1.2-1.8,2.1-3.2,2.4
						C192.8,111.3,188.4,111.5,183.7,111.5z M172.2,50.9c-0.1,0.6-2.1,22.2-2,54.1l0,0.1l0,0.1c0,0.3-0.2,2.6,1.8,3
						c4.4,1.1,19.1,0.9,21.5,0.3c0.7-0.2,1.3-0.6,1.6-1.2c0.4-0.7,0.4-1.8,0.1-2.7c-0.8-2.3-2.6-12-2.6-13.9l0-0.2
						c0-1,0-1.7,0.6-2.3c0.6-0.6,1.4-0.5,2.5-0.5l0.2,0c0.1,0,9,0.2,15.8-2.7c10.4-4.4,15.3-11.5,15-21.5
						c-0.4-14.4-18.3-15.9-21.9-16c-6.5-0.3-26.2,0.4-29.3,0.6C173,48.2,172.5,48.4,172.2,50.9z"/>
				</g>
				<g>
					<path d="M194,66.8c0-0.9,0.1-1.2,1-1.3c1-0.1,5.1-0.5,7.5,1.1c2.2,1.5,2,4.9-0.6,6.9c-2.6,2-5.6,2.3-7,2.3c-1.1,0-1-0.5-1-1.2
						C194,73.9,194,67.6,194,66.8z"/>
					<path d="M194.9,77.1c-0.3,0-1.1,0-1.7-0.6c-0.6-0.6-0.6-1.4-0.5-1.9c0-0.5,0-3.2,0-5.2c0-1.2,0-2.3,0-2.6v0
						c0-0.7,0-2.4,2.2-2.5l0.2,0c1.5-0.1,5.5-0.4,8.1,1.3c1.3,0.9,2.1,2.3,2.1,3.9c0.1,1.9-0.9,3.9-2.6,5.2
						C199.8,76.8,196.6,77.1,194.9,77.1C195,77.1,194.9,77.1,194.9,77.1z M195.3,66.9c0,0.3,0,1.3,0,2.6c0,2.5,0,4.5,0,5.1
						c1.2,0,3.7-0.3,5.9-2c1-0.8,1.6-1.9,1.6-3c0-0.8-0.4-1.4-1-1.8C199.9,66.5,196.5,66.7,195.3,66.9L195.3,66.9
						C195.3,66.8,195.3,66.8,195.3,66.9L195.3,66.9z"/>
				</g>
				<g>
					<path class="st2" d="M199.1,53.1c0,0-0.1,0-0.1,0l-0.7-0.1c-0.9-0.1-1.6-0.9-1.6-1.8c0.1-0.9,0.9-1.7,1.8-1.6l0.7,0.1
						c0.9,0.1,1.6,0.9,1.6,1.8C200.7,52.4,200,53.1,199.1,53.1z"/>
				</g>
				<g>
					<path class="st2" d="M220.1,72.9c-0.3,0-0.5-0.1-0.8-0.2c-0.8-0.4-1.2-1.4-0.8-2.3c0,0,2.2-4.5,1.2-8.6
						c-0.7-3.3-2.4-6.5-14.8-7.9c-0.9-0.1-1.6-1-1.5-1.9c0.1-0.9,1-1.6,1.9-1.5c11.5,1.4,16.3,4.2,17.7,10.6
						c1.2,5.3-1.4,10.6-1.5,10.8C221.4,72.5,220.8,72.9,220.1,72.9z"/>
				</g>
			</g>
			<g>
				<g>
					<path class="st1" d="M109.2,50.7c0.4-3.4,1.7-3.8,4.7-4c3-0.2,22.8-0.8,29.5-0.6c9.2,0.4,22.7,4.3,23.1,17.3
						c0.3,11.4-5.9,18.5-15.8,22.7c-7.2,3.1-16.4,2.8-16.4,2.8c-2.1-0.1-2-0.2-2,1.7c0,1.7,1.7,11.4,2.5,13.5s0.1,4.9-2.6,5.5
						c-2.7,0.7-17.6,0.8-22.1-0.3c-3.2-0.7-2.8-4.4-2.8-4.4C107,72.3,109.2,50.7,109.2,50.7z"/>
					<path d="M121.9,111.5c-4.8,0-9.8-0.2-12.2-0.8c-3.3-0.8-3.9-4-3.8-5.7c-0.2-32.3,1.9-54.1,2-54.3l0,0c0.5-4.5,2.8-5,5.9-5.2
						c3.3-0.2,22.9-0.8,29.6-0.6c11.5,0.5,23.9,5.6,24.3,18.5c0.3,11.1-5.2,19.1-16.6,23.9c-7.4,3.1-16.5,2.9-16.9,2.9l-0.3,0
						c-0.1,0-0.3,0-0.4,0c0,0.1,0,0.2,0,0.3l0,0.2c0,1.5,1.7,11,2.4,13.1c0.6,1.6,0.5,3.4-0.3,4.8c-0.7,1.2-1.8,2.1-3.2,2.4
						C131,111.3,126.6,111.5,121.9,111.5z M110.4,50.9c-0.1,0.6-2.1,22.2-2,54.1l0,0.1l0,0.1c0,0.3-0.2,2.6,1.8,3
						c4.4,1.1,19.1,0.9,21.5,0.3c0.7-0.2,1.3-0.6,1.6-1.2c0.4-0.7,0.4-1.8,0.1-2.7c-0.8-2.3-2.6-12-2.6-13.9l0-0.2
						c0-1,0-1.7,0.6-2.3c0.6-0.6,1.4-0.5,2.5-0.5l0.2,0c0.1,0,9,0.2,15.8-2.7c10.4-4.4,15.3-11.5,15-21.5
						c-0.4-14.4-18.3-15.9-21.9-16c-6.5-0.3-26.2,0.4-29.3,0.6C111.2,48.2,110.7,48.4,110.4,50.9z"/>
				</g>
				<g>
					<path d="M132.2,66.8c0-0.9,0.1-1.2,1-1.3c1-0.1,5.1-0.5,7.5,1.1c2.2,1.5,2,4.9-0.6,6.9c-2.6,2-5.6,2.3-7,2.3
						c-1.1,0-1-0.5-1-1.2C132.2,73.9,132.2,67.6,132.2,66.8z"/>
					<path d="M133.1,77.1c-0.3,0-1.1,0-1.7-0.6c-0.6-0.6-0.6-1.4-0.5-1.9c0-0.5,0-3.1,0-5.1c0-1.3,0-2.4,0-2.7l0,0
						c0-0.8,0-2.4,2.2-2.5l0.2,0c1.5-0.1,5.5-0.4,8.1,1.3c1.3,0.9,2.1,2.3,2.1,3.9c0.1,1.9-0.9,3.9-2.6,5.2
						C138.1,76.8,134.9,77.1,133.1,77.1C133.2,77.1,133.2,77.1,133.1,77.1z M133.5,66.8C133.5,66.8,133.5,66.8,133.5,66.8
						L133.5,66.8c0,0.3,0,1.4,0,2.7c0,2.5,0,4.4,0,5c1.2,0,3.7-0.3,5.9-2c1-0.8,1.6-1.9,1.6-3c0-0.8-0.4-1.4-1-1.8
						C138.1,66.5,134.7,66.7,133.5,66.8L133.5,66.8z"/>
				</g>
				<g>
					<path class="st2" d="M137.4,53.2C137.4,53.2,137.4,53.2,137.4,53.2l-1.4-0.1c-0.9,0-1.7-0.8-1.6-1.8s0.8-1.7,1.8-1.6l1.3,0.1
						c0.9,0,1.7,0.8,1.6,1.8C139.1,52.4,138.3,53.2,137.4,53.2z"/>
				</g>
				<g>
					<path class="st2" d="M157.4,72.8c-0.4,0-0.8-0.1-1.1-0.4c-0.7-0.6-0.8-1.7-0.2-2.4c0.1-0.2,3.2-4,1.6-8.6
						c-1.5-4.5-3.9-5.8-14.5-7.5c-0.9-0.1-1.6-1-1.4-2c0.1-0.9,1-1.6,2-1.4c10.2,1.6,14.9,3.1,17.2,9.8c2.2,6.5-2.1,11.7-2.2,11.9
						C158.4,72.6,157.9,72.8,157.4,72.8z"/>
				</g>
			</g>
			<g>
				<g>
					<path class="st1" d="M77.8,51.2c0.3-3.2,1.5-4.3,5.2-4.6c3.7-0.2,11-0.4,14.3,0.3c3.3,0.7,3.4,3.2,3.6,5.7
						c0.1,2,2.2,40.7,1.6,53.2c-0.4,4.4-3.9,3.9-5.2,4c-1.3,0.1-13.8,0.2-17-0.1c-3.2-0.4-4.5-1.2-4.5-4.6
						C75.6,91.1,76.6,64.4,77.8,51.2z"/>
					<path d="M89.4,111.1c-3.7,0-7.6-0.1-9.3-0.2c-3.5-0.4-5.7-1.5-5.7-5.9c-0.1-14.3,1-41.1,2.1-54l0,0c0.3-3.9,2.1-5.5,6.4-5.7
						c2.8-0.2,10.9-0.5,14.6,0.3c4.2,0.9,4.4,4.3,4.6,6.7c0,0.5,2.3,40.6,1.6,53.4c-0.4,5-4.4,5.2-5.9,5.2c-0.2,0-0.3,0-0.5,0
						C96.7,111.1,93.1,111.1,89.4,111.1z M79.1,51.3C77.9,64.1,76.9,90.8,77,105c0,2.5,0.6,3,3.4,3.3c3.1,0.3,15.6,0.2,16.7,0.1
						c0.2,0,0.4,0,0.6,0c1.9-0.1,3.3-0.3,3.5-2.8c0.7-12.7-1.6-52.6-1.6-53c-0.2-2.7-0.3-4-2.6-4.5c-3.1-0.7-10.2-0.5-13.9-0.3
						C79.9,48.1,79.3,48.9,79.1,51.3L79.1,51.3z"/>
				</g>
				<g>
					<path class="st2" d="M94.9,57.3c-0.8,0-1.6-0.6-1.7-1.5l-0.1-0.4c0-0.1,0-0.2,0-0.2c0-0.8,0.6-1.6,1.5-1.7
						c0.9-0.1,1.8,0.5,1.9,1.4l0.1,0.4c0,0.1,0,0.2,0,0.2c0,0.8-0.6,1.6-1.5,1.7C95,57.3,94.9,57.3,94.9,57.3z"/>
				</g>
				<g>
					<path class="st2" d="M95.6,100.8c-0.9,0-1.7-0.8-1.7-1.7c0-0.9-0.7-27.8-1.2-36c-0.1-0.9,0.7-1.8,1.6-1.8
						c0.9,0,1.8,0.7,1.8,1.6c0.5,8.3,1.2,35.3,1.2,36.2C97.3,100,96.6,100.8,95.6,100.8z"/>
				</g>
			</g>
			<g>
				<g>
					<path class="st1" d="M12,49.7c0.6-2.5,2.4-2.9,4.3-3s20.6-1,28.8,0.5c8.2,1.5,25.9,8.3,27.1,30.4c1,18.7-5.1,26.6-17.9,30.7
						s-39.7,1.4-41.2,1.4s-3.3-1-3.4-3.9C9.5,100.1,10.7,54.7,12,49.7z"/>
					<path d="M33,111.8c-5.3,0-11.4-0.2-18.1-0.7c-0.9-0.1-1.5-0.1-1.7-0.1c-2.3,0-4.6-1.6-4.7-5.2c-0.2-5.5,1-51.3,2.4-56.5v0
						c1-3.7,4-3.9,5.5-3.9c0.8,0,20.4-1.1,29.1,0.5c4.5,0.8,26.7,6.3,28.1,31.5c1,18.2-4.5,27.5-18.8,32
						C49.9,111,42.6,111.8,33,111.8z M30.6,47.6c-7.3,0-14,0.4-14.2,0.4c-1.9,0.1-2.8,0.4-3.2,2v0c-1.3,4.9-2.5,50.4-2.3,55.8
						c0.1,2.5,1.7,2.7,2.2,2.7c0.2,0,0.8,0,1.8,0.1c18.6,1.3,31.7,0.8,39-1.5c11-3.5,18-9.8,17-29.4c-1.2-22.8-20.2-28.1-26-29.2
						C41.4,47.8,35.9,47.6,30.6,47.6z"/>
				</g>
				<g>
					<path d="M37,66.5c-1.6,0.2-2,0-2.2,2.1c-0.2,2.1-0.2,16.6,0.1,18.6c0.2,1.7,2,1.6,3.4,1.6c1.1,0.1,4.3,0.3,7.3-2.2
						c3-2.5,2.5-7.2,1.9-11.1c-0.6-3.9-2.7-7.4-6-8.5C38.7,66.1,37,66.5,37,66.5z"/>
					<path d="M39.3,90.2c-0.4,0-0.7,0-1,0l-0.5,0c-1.4-0.1-3.9-0.2-4.2-2.7c-0.3-2.2-0.3-16.8-0.1-18.9c0.2-2.5,1-3,2.8-3.2
						c0.1,0,0.3,0,0.5-0.1c0.4-0.1,2.3-0.4,5.2,0.6c3.5,1.2,6.1,4.9,6.8,9.5c0.5,3.2,1.4,9.1-2.4,12.3C43.7,89.9,41,90.2,39.3,90.2z
						 M36.1,67.9c0,0.1-0.1,0.4-0.1,0.8c-0.2,1.9-0.2,16.4,0.1,18.4c0,0.3,0.2,0.4,1.8,0.5l0.5,0c1.1,0.1,3.8,0.2,6.3-1.9
						c2.4-2,2.1-5.9,1.5-9.9c-0.6-3.7-2.5-6.6-5.1-7.5c-2.4-0.8-3.8-0.5-3.8-0.5l-0.1,0c-0.2,0-0.4,0.1-0.6,0.1
						C36.4,67.9,36.3,67.9,36.1,67.9z"/>
				</g>
				<g>
					<path class="st2" d="M44.5,55.6c-0.1,0-0.3,0-0.4,0l-1-0.2c-0.9-0.2-1.5-1.1-1.3-2c0.2-0.9,1.1-1.5,2-1.3l1,0.2
						c0.9,0.2,1.5,1.1,1.3,2C46,55.1,45.3,55.6,44.5,55.6z"/>
				</g>
				<g>
					<path class="st2" d="M56.4,100.4c-0.6,0-1.2-0.3-1.5-0.9c-0.5-0.8-0.2-1.9,0.7-2.3c0.4-0.2,8.9-5.2,8.2-18.5
						c-0.7-12.7-7-17.1-13.2-19.8c-0.9-0.4-1.3-1.4-0.9-2.2c0.4-0.9,1.4-1.3,2.2-0.9c6.7,2.9,14.4,8.1,15.2,22.7
						c0.8,15.5-9.5,21.4-10,21.7C56.9,100.3,56.6,100.4,56.4,100.4z"/>
				</g>
			</g>
			<g>
				<g>
					<g>
						<g>
							<path class="st7" d="M98,29.7c-1.6,0-3.1-0.3-4.6-0.9l-2.7-1.1c-0.7-0.3-1-1-0.7-1.7l1.1-2.7c1.9-4.9,6.5-8,11.7-8
								c1.6,0,3.1,0.3,4.6,0.9l2.7,1.1c0.3,0.1,0.6,0.4,0.7,0.7c0.1,0.3,0.1,0.7,0,1l-1.1,2.7C107.8,26.6,103.2,29.7,98,29.7z"/>
							<path d="M98,31c-1.7,0-3.4-0.3-5.1-1L90.3,29c-1.3-0.5-2-2-1.4-3.3l1.1-2.7c2.1-5.4,7.2-8.8,12.9-8.8c1.7,0,3.4,0.3,5.1,1
								l2.7,1.1c0.6,0.2,1.1,0.7,1.4,1.4c0.3,0.6,0.3,1.3,0,2l-1.1,2.7C108.8,27.6,103.8,31,98,31z M102.8,16.7
								c-4.7,0-8.8,2.8-10.5,7.2l-1.1,2.7l2.7,1.1c1.3,0.5,2.7,0.8,4.1,0.8c4.7,0,8.8-2.8,10.5-7.2l1.1-2.7l-2.7-1.1
								C105.6,17,104.2,16.7,102.8,16.7z"/>
						</g>
					</g>
					<g>
						<g>
							<path class="st7" d="M102.7,46.4l-2.9-0.3c-6.9-0.6-12.1-6.7-11.5-13.7l0.3-2.9c0.1-0.7,0.6-1.2,1.3-1.2c0,0,0.1,0,0.1,0
								l2.9,0.3c3.4,0.3,6.4,1.9,8.6,4.5c2.2,2.6,3.2,5.8,2.9,9.2l-0.3,2.9c0,0.3-0.2,0.7-0.5,0.9c-0.2,0.2-0.5,0.3-0.8,0.3
								C102.7,46.4,102.7,46.4,102.7,46.4z"/>
							<path d="M102.8,47.7c-0.1,0-0.1,0-0.2,0l0,0l-2.9-0.3C92,46.8,86.4,40,87,32.4l0.3-2.9c0.1-1.4,1.3-2.5,2.8-2.3l2.9,0.2
								c3.7,0.3,7,2.1,9.4,4.9c2.4,2.8,3.5,6.4,3.2,10.1l-0.3,2.9c-0.1,0.7-0.4,1.3-0.9,1.7C104,47.5,103.4,47.7,102.8,47.7z
								 M89.8,29.7l-0.3,2.9c-0.5,6.2,4.1,11.7,10.3,12.3l2.9,0.3l-0.1,1.3l0.4-4.2c0.3-3-0.7-5.9-2.6-8.3s-4.7-3.7-7.7-4L89.8,29.7
								z"/>
						</g>
					</g>
					<g>
						<g>
							<path class="st7" d="M74,46.1c-0.3,0-0.6-0.1-0.9-0.3c-0.3-0.2-0.4-0.5-0.4-0.9L72.6,42c-0.2-3.4,0.9-6.6,3.2-9.1
								s5.3-4,8.7-4.2c0,0,2.9-0.2,3-0.2c0.3,0,0.6,0.1,0.9,0.3c0.3,0.2,0.4,0.5,0.4,0.9l0.2,2.9c0.4,6.9-4.9,12.9-11.9,13.3
								C77,45.9,74.1,46.1,74,46.1z"/>
							<path d="M74,47.4c-0.6,0-1.2-0.2-1.7-0.7c-0.5-0.4-0.8-1.1-0.9-1.8l-0.2-2.9c-0.2-3.7,1-7.3,3.5-10c2.5-2.8,5.9-4.4,9.6-4.6
								c3-0.2,3-0.2,3-0.2c0.6,0,1.2,0.2,1.7,0.7c0.5,0.4,0.8,1.1,0.8,1.8l0.2,2.9c0.4,7.6-5.4,14.2-13.1,14.6
								C74.1,47.4,74.1,47.4,74,47.4z M87.4,29.8c-0.1,0-2.9,0.2-2.9,0.2c-3,0.2-5.8,1.5-7.8,3.8c-2,2.3-3,5.2-2.9,8.2l0.2,2.9
								c0.4,0,2.9-0.2,2.9-0.2c6.2-0.4,11-5.7,10.7-11.9L87.4,29.8z"/>
						</g>
					</g>
					<g>
						<g>
							<path class="st7" d="M78.3,30.3c-5.2,0-9.9-3.2-11.8-8.1l-1-2.7c-0.3-0.7,0.1-1.4,0.7-1.7l2.7-1c1.5-0.6,3-0.8,4.5-0.8
								c5.2,0,9.9,3.2,11.8,8.1l1,2.7c0.1,0.3,0.1,0.7,0,1c-0.1,0.3-0.4,0.6-0.7,0.7l-2.7,1C81.4,30,79.9,30.3,78.3,30.3
								C78.3,30.3,78.3,30.3,78.3,30.3z"/>
							<path d="M78.3,31.6L78.3,31.6c-5.7,0-10.9-3.6-13-8.9l-1-2.7c-0.2-0.6-0.2-1.3,0-2c0.3-0.6,0.8-1.1,1.4-1.4l2.7-1
								c1.6-0.6,3.3-0.9,5-0.9c5.7,0,10.9,3.6,13,8.9l1,2.7c0.2,0.6,0.2,1.3,0,2c-0.3,0.6-0.8,1.1-1.4,1.4l-2.7,1
								C81.7,31.3,80,31.6,78.3,31.6z M73.5,17.3c-1.4,0-2.8,0.3-4.1,0.8l-2.7,1l1,2.7c1.7,4.3,5.9,7.2,10.6,7.2
								c1.4,0,2.8-0.3,4.1-0.8l2.7-1l-1-2.7C82.4,20.2,78.1,17.3,73.5,17.3z"/>
						</g>
					</g>
					<g>
						<g>
							<path class="st7" d="M87.6,25.5c-0.3,0-0.7-0.1-0.9-0.4l-2-2.1c-4.8-5-4.7-13,0.3-17.8l2.1-2c0.2-0.2,0.6-0.4,0.9-0.4
								c0.3,0,0.7,0.1,0.9,0.4l2,2.1c4.8,5,4.7,13-0.3,17.8l-2.1,2C88.2,25.4,87.9,25.5,87.6,25.5z"/>
							<path d="M87.6,26.8c-0.7,0-1.4-0.3-1.8-0.8l-2-2.1c-5.3-5.5-5.2-14.3,0.3-19.6l2.1-2c1-1,2.7-0.9,3.6,0.1l2,2.1
								c2.6,2.7,4,6.2,3.9,9.9s-1.6,7.2-4.2,9.8l-2.1,2C88.9,26.5,88.3,26.8,87.6,26.8z M87.6,24.2l0,1.3L87.6,24.2
								C87.6,24.2,87.6,24.2,87.6,24.2z M87.9,4.1l-2.1,2c-4.5,4.3-4.6,11.5-0.3,16l2,2.1l2.1-2c2.2-2.1,3.4-4.9,3.4-8
								c0-3-1.1-5.9-3.2-8.1L87.9,4.1z"/>
						</g>
					</g>
				</g>
				<g>
					<g>
						<path class="st1" d="M88.2,34.7c-3.3,0-6.2-2-7.5-5c-0.8-2-0.8-4.2,0-6.2c0.8-2,2.4-3.6,4.4-4.4c1-0.4,2-0.6,3.1-0.6
							c3.3,0,6.2,2,7.5,5c0.8,2,0.8,4.2,0,6.2c-0.8,2-2.4,3.6-4.4,4.4C90.3,34.5,89.2,34.7,88.2,34.7z"/>
						<path d="M88.2,36c-3.8,0-7.2-2.3-8.7-5.8c-1-2.3-0.9-4.9,0-7.2c1-2.3,2.8-4.1,5.1-5.1c1.1-0.5,2.3-0.7,3.6-0.7
							c3.8,0,7.2,2.3,8.7,5.8c1,2.3,0.9,4.9,0,7.2s-2.8,4.1-5.1,5.1C90.6,35.7,89.4,36,88.2,36z M88.2,19.7c-0.9,0-1.8,0.2-2.6,0.5
							c-1.7,0.7-3,2-3.7,3.7c-0.7,1.7-0.7,3.5,0,5.2c1.1,2.6,3.5,4.2,6.3,4.2c0.9,0,1.8-0.2,2.6-0.5c1.7-0.7,3-2,3.7-3.7
							c0.7-1.7,0.7-3.5,0-5.2C93.4,21.4,91,19.7,88.2,19.7z"/>
					</g>
				</g>
			</g>
			<g>
				<g>
					<path class="st7" d="M255.1,34.3l-1.3-1.2l2,0.5c4,0.8,7.8-2.2,7.9-6.4l0,0c0.1-4.2-3.8-7.5-7.9-6.7l-2.8,0.8l2.2-2.4
						c2.6-3.2,1.8-7.9-1.8-10l0,0c-3.7-2.1-8.3-0.3-9.6,3.7l-0.7,3l-0.7-3c-1.3-4-6-5.8-9.7-3.6l0,0c-3.6,2.1-4.4,6.9-1.7,10
						l1.4,1.5l-1.6-0.5c-4.1-1-8.1,2.1-8.2,6.3l0,0c-0.1,4.1,3.6,7.3,7.6,6.7l3.2-0.7l-2.1,2c-2.8,3.1-2.1,8.1,1.6,10.2l0,0
						c3.6,2.1,8.1,0.4,9.5-3.5l0.8-2.6l0.8,2.5c1.4,3.9,6,5.5,9.6,3.4l0,0C257.2,42.4,258,37.4,255.1,34.3z M242,27.5l0-1.3l1.1-0.6
						l1.2,0.6l0,1.3l-1.1,0.7L242,27.5z"/>
					<path d="M236.2,46.8c-1.4,0-2.7-0.4-4-1.1c-2.1-1.2-3.5-3.3-3.9-5.6c-0.3-2,0.1-4,1.3-5.7c-2.1,0.1-4.1-0.6-5.6-1.9
						c-1.8-1.5-2.7-3.8-2.7-6.1c0.1-2.4,1.2-4.6,3.1-6.1c1.4-1.1,3-1.6,4.7-1.6c-0.8-1.6-1.1-3.3-0.8-5.1c0.4-2.3,1.8-4.3,3.8-5.5
						c2.1-1.2,4.6-1.4,6.8-0.6c1.8,0.7,3.3,2,4.2,3.7c0.9-1.7,2.3-3,4.2-3.7c2.2-0.9,4.7-0.7,6.8,0.5c2,1.2,3.4,3.2,3.8,5.5
						c0.4,2-0.1,4.1-1.2,5.8c2-0.1,3.9,0.5,5.5,1.8c1.8,1.5,2.9,3.8,2.8,6.2c-0.1,2.3-1.1,4.5-3,6c-1.4,1.1-3.1,1.7-4.8,1.7
						c0.8,1.5,1.1,3.2,0.9,4.9c-0.3,2.4-1.7,4.4-3.8,5.7c-2,1.2-4.4,1.4-6.7,0.6c-1.9-0.7-3.4-2-4.3-3.7c-0.9,1.8-2.4,3.1-4.3,3.8
						C238,46.6,237.1,46.8,236.2,46.8z M232.2,35.3c-1.1,1.2-1.5,2.8-1.3,4.4c0.3,1.6,1.2,3,2.6,3.8c1.4,0.8,3,0.9,4.5,0.4
						c1.5-0.5,2.7-1.7,3.2-3.2l0.7-2.5c0.2-0.5,0.7-0.9,1.2-0.9c0,0,0,0,0,0c0.6,0,1.1,0.4,1.2,0.9l0.8,2.5c0.5,1.4,1.7,2.6,3.2,3.1
						c1.5,0.5,3.1,0.4,4.5-0.4c1.4-0.8,2.3-2.2,2.6-3.8c0.2-1.6-0.3-3.2-1.3-4.4l-1.3-1.1c-0.4-0.4-0.5-1-0.3-1.6
						c0.3-0.5,0.9-0.8,1.4-0.6l2,0.5c1.5,0.3,3.1-0.1,4.3-1.1c1.2-1,2-2.5,2-4.1c0-1.6-0.7-3.2-1.9-4.2c-1.2-1-2.8-1.5-4.4-1.2
						l-2.8,0.8c-0.6,0.2-1.1-0.1-1.4-0.6c-0.3-0.5-0.2-1.1,0.2-1.5l2.2-2.4c1-1.2,1.4-2.8,1.1-4.3c-0.3-1.6-1.2-2.9-2.6-3.7
						c-1.4-0.8-3.1-0.9-4.6-0.4c-1.5,0.6-2.6,1.8-3.1,3.3l-0.7,2.9c-0.1,0.6-0.6,1-1.2,1c0,0,0,0,0,0c-0.6,0-1.1-0.4-1.2-1l-0.7-2.9
						c-0.5-1.5-1.7-2.7-3.2-3.3c-1.5-0.6-3.2-0.4-4.6,0.4c-1.4,0.8-2.3,2.2-2.6,3.7c-0.3,1.6,0.2,3.2,1.2,4.4l1.4,1.4
						c0.4,0.4,0.5,1.1,0.2,1.6c-0.3,0.5-0.9,0.7-1.5,0.5l-1.6-0.5c-1.6-0.4-3.2,0-4.5,1c-1.3,1-2,2.5-2.1,4.1c0,1.6,0.6,3.1,1.8,4.1
						c1.2,1,2.8,1.5,4.3,1.3l3.1-0.7c0.6-0.1,1.1,0.2,1.4,0.7c0.3,0.5,0.2,1.1-0.3,1.5L232.2,35.3z M243.2,29.4
						c-0.2,0-0.5-0.1-0.7-0.2l-1.2-0.7c-0.4-0.2-0.6-0.7-0.6-1.1l0-1.3c0-0.4,0.3-0.8,0.6-1.1l1.1-0.6c0.4-0.2,0.9-0.2,1.3,0
						l1.2,0.6c0.4,0.2,0.7,0.7,0.7,1.1l0,1.3c0,0.4-0.2,0.9-0.6,1.1l-1.1,0.7C243.6,29.4,243.4,29.4,243.2,29.4z"/>
				</g>
				<g>
					<g>
						<path class="st1" d="M243.3,34.6c-1.3,0-2.6-0.3-3.7-1c-3.6-2.1-4.8-6.6-2.7-10.2c1.3-2.3,3.8-3.7,6.5-3.7
							c1.3,0,2.6,0.3,3.7,1c3.6,2.1,4.8,6.6,2.7,10.2C248.4,33.2,246,34.6,243.3,34.6z"/>
						<path d="M243.3,35.9c-1.5,0-3-0.4-4.4-1.2c-4.2-2.4-5.6-7.8-3.2-11.9c1.6-2.7,4.5-4.4,7.6-4.4c1.5,0,3,0.4,4.4,1.2
							c4.2,2.4,5.6,7.8,3.2,11.9C249.3,34.2,246.4,35.9,243.3,35.9z M243.3,21c-2.2,0-4.3,1.2-5.4,3.1c-1.7,3-0.7,6.7,2.3,8.5
							c0.9,0.5,2,0.8,3.1,0.8c2.2,0,4.3-1.2,5.4-3.1c1.7-3,0.7-6.7-2.3-8.5C245.5,21.3,244.4,21,243.3,21z"/>
					</g>
				</g>
			</g>
			<g>
				<g>
					<path class="st7" d="M232.6,75.6c-0.1,4.9-6.1,8-6.1,8s-1.6,6.6-10.3,13.8c-6.8,5.6-9,15.6-9,15.6s-3.7-9.3-14.8-15.1
						c-10.4-5.4-12.1-7.8-17.8-14.8c0,0-8.7-3.7-8.4-8.9c0.2-3.2,1.8-4.6,3.2-5.2c12.5,13.4,33,12.7,33,12.7
						c13.6-0.2,22.1-5.7,27-11.3C232.8,72.4,232.6,75.6,232.6,75.6z"/>
					<path d="M207.2,114.3c-0.5,0-1-0.3-1.2-0.8c0-0.1-3.7-8.9-14.2-14.5c-10.1-5.3-12.3-7.9-17.5-14.2l-0.5-0.7
						c-1.6-0.8-9.2-4.5-8.9-10c0.2-4.2,2.6-5.7,4.1-6.3c0.5-0.2,1-0.1,1.4,0.3c11.9,12.8,31.9,12.3,32.1,12.3
						c13.8-0.2,21.8-6,26.1-10.9c0.4-0.5,1.1-0.6,1.6-0.3c3.8,2.2,3.8,5.9,3.8,6.3c-0.1,4.8-4.8,7.9-6.3,8.8
						c-0.6,1.8-3,7.7-10.5,13.9c-6.4,5.3-8.5,14.8-8.6,14.9c-0.1,0.5-0.6,1-1.1,1C207.3,114.3,207.2,114.3,207.2,114.3z M169.1,70.6
						c-1,0.7-1.6,1.9-1.7,3.6c-0.2,3.5,5.5,6.7,7.7,7.7c0.2,0.1,0.4,0.2,0.5,0.4l0.7,0.9c5.1,6.2,7,8.5,16.7,13.6
						c7.6,4,11.8,9.5,13.8,12.8c1.2-3.5,3.8-9.3,8.5-13.2c8.2-6.7,9.8-13,9.8-13.1c0.1-0.4,0.3-0.7,0.7-0.8c0.1,0,5.4-2.8,5.4-6.8
						c0,0,0,0,0,0c0-0.1,0-2-1.7-3.4c-4.8,5.1-13.2,10.7-27.2,10.9C201.7,83.1,181.9,83.6,169.1,70.6z"/>
				</g>
				<g>
					<path class="st7" d="M186.4,87.9c-5-1.2-11.9-4.8-11.9-4.8"/>
					<path d="M186.4,89.2c-0.1,0-0.2,0-0.3,0c-5.1-1.2-11.9-4.8-12.2-4.9c-0.6-0.3-0.9-1.1-0.5-1.7c0.3-0.6,1.1-0.9,1.7-0.5
						c0.1,0,6.8,3.6,11.6,4.7c0.7,0.2,1.1,0.8,1,1.5C187.5,88.8,187,89.2,186.4,89.2z"/>
				</g>
				<g>
					<path class="st7" d="M219.3,87.6c2-0.9,5.6-3,7-3.8"/>
					<path d="M219.3,88.8c-0.5,0-1-0.3-1.2-0.8c-0.3-0.7,0-1.4,0.7-1.7c1.9-0.8,5.4-2.8,6.8-3.7c0.6-0.4,1.4-0.2,1.8,0.4
						c0.4,0.6,0.2,1.4-0.4,1.8c-1.4,0.9-5.1,3-7.2,3.9C219.7,88.8,219.5,88.8,219.3,88.8z"/>
				</g>
			</g>
			<g>
				<g>
					<g>
						<path class="st8" d="M351.2,110.4c-3.7,0-8.2-0.4-13.4-1c-5.2-0.7-9.7-1.6-13.3-2.7c-1.7-0.6-2.6-2-2.6-3.8
							c-0.2-6.4-0.4-11.8-0.4-16.1c0-1.9,0.6-3,1.8-3.4c0.8-0.3,1.3-0.4,1.7-0.4c1,0,1.9,0.4,2.7,1.3c5.1,4.4,11.5,6.6,19,6.6
							c2.6,0,4.5-0.4,5.7-1.1c1.1-0.7,1.6-1.5,1.6-2.6c0-0.3,0-1.2-1.6-2.3c-1.3-0.9-3.1-1.6-5.2-2.2c-2.3-0.6-4.8-1.4-7.4-2.4
							c-2.7-1-5.2-2-7.4-3.1c-2.4-1.2-4.5-2.9-6.1-5.2c-1.6-2.3-2.5-5-2.5-8.1c0-11.8,9.3-17.8,27.6-17.8c8.5,0,16.1,0.9,22.6,2.8
							l0.1,0l0.1,0c1.5,0.6,2.4,1.8,2.6,3.4c0.1,0.9,0.2,3,0.5,6.4c0.3,3.4,0.4,5.9,0.5,7.5l0,0.3c0,1.7-0.5,2.8-1.5,3.3
							c-0.7,0.4-1.3,0.5-1.8,0.5c-0.9,0-1.7-0.4-2.4-1.2c-4.5-3-9.4-4.5-14.7-4.6h-0.6c-2.5,0-4.7,0.3-6.4,1c-2,0.8-2,1.7-2,2
							c0,1.1,1.4,1.9,2.6,2.5c2.2,1,4.9,1.8,8.1,2.7c3.2,0.8,6.6,1.9,9.8,3.1c3.4,1.2,6.4,3.2,8.8,5.8c2.5,2.7,3.7,6,3.7,9.9
							c-0.1,6.2-2.8,11-8.2,14.3C367.8,108.8,360.5,110.4,351.2,110.4z"/>
					</g>
					<g>
						<path d="M351.2,47.3c8.4,0,15.8,0.9,22.2,2.8c1.1,0.5,1.7,1.2,1.8,2.3c0.1,0.9,0.2,3,0.5,6.4c0.3,3.4,0.4,5.9,0.5,7.5
							c0,0.1,0,0.1,0,0.3c0,1.2-0.3,1.9-0.8,2.1c-0.5,0.3-0.9,0.4-1.2,0.4c-0.5,0-1-0.3-1.6-0.9c-4.7-3.2-9.9-4.8-15.6-4.9
							c-0.2,0-0.4,0-0.6,0c-2.7,0-5,0.4-6.9,1.1c-1.9,0.7-2.8,1.8-2.8,3.2c0,1.4,1.1,2.7,3.4,3.6c2.3,1,5,1.9,8.3,2.7
							c3.2,0.8,6.5,1.8,9.7,3c3.3,1.2,6,3,8.3,5.4c2.2,2.5,3.4,5.5,3.4,9c-0.1,5.7-2.6,10.1-7.6,13.2c-5,3.1-12,4.6-21.1,4.6
							c-3.7,0-8.1-0.3-13.2-1c-5.1-0.7-9.5-1.6-13.1-2.7c-1.1-0.4-1.6-1.3-1.6-2.6c-0.2-6.4-0.4-11.8-0.4-16.2c0-1.3,0.3-2,0.9-2.2
							c0.6-0.2,1-0.3,1.3-0.3c0.6,0,1.2,0.3,1.8,1c5.4,4.7,12,7,19.9,7c2.8,0,5-0.4,6.4-1.3c1.4-0.9,2.2-2.1,2.2-3.7
							c0-1.3-0.7-2.4-2.2-3.4c-1.5-1-3.3-1.8-5.6-2.4S342.7,80,340,79c-2.6-1-5.1-2-7.3-3.1c-2.2-1.1-4.1-2.7-5.6-4.8
							c-1.5-2.1-2.2-4.6-2.2-7.4C324.9,52.8,333.7,47.3,351.2,47.3 M351.2,44.7c-9.4,0-16.3,1.5-21.1,4.5c-5.2,3.2-7.8,8.1-7.8,14.6
							c0,3.4,0.9,6.3,2.7,8.9c1.7,2.4,4,4.3,6.6,5.6c2.3,1.1,4.9,2.2,7.6,3.2c2.7,1,5.2,1.8,7.5,2.4c2,0.5,3.6,1.2,4.8,2
							c0.4,0.3,1.1,0.8,1.1,1.2c0,0.6-0.2,1-0.9,1.5c-0.7,0.4-2.1,1-5,1c-7.3,0-13.2-2.1-18.1-6.3c-1.3-1.4-2.7-1.7-3.6-1.7
							c-0.5,0-1.1,0.1-2.1,0.4c-1,0.3-2.7,1.4-2.7,4.6c0.1,4.4,0.2,9.8,0.4,16.2c0,2.4,1.2,4.2,3.3,4.9l0.1,0l0.1,0
							c3.7,1.1,8.3,2.1,13.5,2.8c5.2,0.7,9.8,1.1,13.6,1.1c9.5,0,17.1-1.7,22.5-5c5.8-3.6,8.7-8.7,8.8-15.3c0-4.2-1.4-7.9-4-10.8
							c-2.5-2.7-5.6-4.8-9.3-6.1c-3.3-1.2-6.7-2.2-10-3.1c-3.1-0.8-5.7-1.7-7.9-2.6c-1.5-0.7-1.9-1.2-1.9-1.3c0-0.2,0.4-0.5,1.2-0.8
							c1.6-0.6,3.6-0.9,5.9-0.9h0.6c5,0.1,9.7,1.6,13.9,4.3c1.2,1.2,2.4,1.5,3.2,1.5c0.7,0,1.5-0.2,2.4-0.7c1-0.5,2.2-1.7,2.2-4.4
							v-0.3v0l0,0c-0.1-1.6-0.2-4.2-0.5-7.6c-0.3-3.6-0.4-5.5-0.5-6.3l0-0.1l0-0.1c-0.2-2-1.4-3.6-3.4-4.4l-0.1-0.1l-0.1,0
							C367.6,45.7,359.8,44.7,351.2,44.7L351.2,44.7z"/>
					</g>
				</g>
				<g>
					<g>
						<path class="st8" d="M407.9,110c-4.9,0-8.6-0.1-11-0.4c-1.1-0.1-2-0.5-2.6-1.3c-0.6-0.8-0.9-1.6-0.9-2.5v-0.4l0-0.1
							c0.6-4.8,1.9-17,3.8-36.3c0.1-0.4,0.1-0.8,0.1-1.2c0-0.8-0.2-1.4-0.5-2c-0.1-0.1-0.4-0.6-1.5-0.6c-2.8,0-6.7,2-11.7,6.1
							c-0.7,0.7-1.5,1.1-2.3,1.1c-0.5,0-1-0.1-1.7-0.5c-1-0.5-1.5-1.6-1.5-3.3c0.2-8.3,0.5-14.5,0.8-18.7c0.3-2,1.6-3.3,3.7-3.4
							c4.3-0.2,12.9-0.3,25.4-0.3c12.5,0,21,0.1,25.3,0.3c2.1,0.2,3.5,1.4,3.7,3.4c0.5,5.9,0.8,12.2,0.8,18.9c0,1.7-0.6,2.8-1.7,3.2
							c-0.7,0.3-1.2,0.4-1.6,0.4c-0.6,0-1.5-0.2-2.3-1.1c-5-4-8.9-6-11.5-6c-1.2,0-1.5,0.4-1.6,0.6c-0.4,0.5-0.6,1.1-0.6,1.8
							c0,0.4,0,0.8,0.1,1.2l0,0.1l0,0.1c2.1,20.7,3.3,32.5,3.8,36.3l0,0.1v0.4c0,0.9-0.3,1.7-0.9,2.5c-0.7,0.8-1.6,1.2-2.7,1.3
							C416.9,109.9,413.3,110,407.9,110z"/>
					</g>
					<g>
						<path d="M407.8,47.6c12.6,0,21,0.1,25.2,0.3c1.5,0.1,2.3,0.9,2.5,2.2c0.5,5.8,0.8,12.1,0.8,18.8c0,1.2-0.3,1.8-0.8,2
							c-0.5,0.2-0.9,0.3-1.2,0.3c-0.5,0-1-0.3-1.4-0.8c-5.3-4.3-9.5-6.4-12.4-6.4c-1.2,0-2.1,0.4-2.6,1.1c-0.5,0.7-0.8,1.6-0.8,2.5
							c0,0.5,0.1,1,0.2,1.5c2.1,20.5,3.3,32.6,3.8,36.3c0,0.1,0,0.2,0,0.3c0,0.6-0.2,1.1-0.6,1.6c-0.4,0.5-1,0.8-1.8,0.9
							c-1.8,0.2-5.3,0.3-10.6,0.3c-4.9,0-8.5-0.1-10.9-0.3c-0.7-0.1-1.3-0.3-1.8-0.9c-0.4-0.5-0.6-1.1-0.6-1.6c0-0.1,0-0.2,0-0.3
							c0.6-4.8,1.8-16.9,3.8-36.3c0.1-0.5,0.1-0.9,0.1-1.3c0-1-0.3-1.9-0.8-2.7c-0.5-0.7-1.4-1.1-2.6-1.1c-3.1,0-7.3,2.1-12.6,6.4
							c-0.5,0.5-0.9,0.8-1.4,0.8c-0.3,0-0.7-0.1-1.2-0.3c-0.5-0.2-0.8-1-0.8-2.2c0.2-8.2,0.5-14.4,0.8-18.6c0.2-1.4,1-2.1,2.5-2.2
							C386.7,47.7,395.1,47.6,407.8,47.6 M407.8,45c-12.6,0-21.2,0.1-25.5,0.3l0,0l0,0c-2.7,0.2-4.5,1.9-4.8,4.5l0,0.1l0,0.1
							c-0.3,4.2-0.6,10.4-0.8,18.7l0,0v0c0,2.9,1.3,4,2.3,4.5c0.9,0.4,1.6,0.6,2.2,0.6c0.8,0,2-0.3,3.1-1.5
							c5.9-4.7,9.2-5.7,10.9-5.7c0.3,0,0.5,0,0.5,0.1c0.1,0.2,0.3,0.5,0.3,1.2c0,0.3,0,0.6-0.1,1l0,0l0,0
							c-1.9,19.3-3.2,31.5-3.8,36.3l0,0.2v0.2v0.3c0,1.2,0.4,2.3,1.2,3.3c0.9,1,2.1,1.7,3.5,1.8c2.4,0.2,6.2,0.4,11.1,0.4
							c5.4,0,9-0.1,10.9-0.4c1.4-0.1,2.6-0.7,3.5-1.8c0.8-1,1.2-2.1,1.2-3.3v-0.3v-0.2l0-0.2c-0.5-3.7-1.7-15.6-3.8-36.2l0-0.2
							l0-0.1c-0.1-0.3-0.1-0.6-0.1-0.9c0-0.5,0.2-0.8,0.3-1c0,0,0,0,0,0c0,0,0.2-0.1,0.6-0.1c1.3,0,4.5,0.7,10.6,5.7
							c0.9,1,2,1.5,3.2,1.5c0.6,0,1.2-0.1,2.1-0.5c0.9-0.3,2.5-1.4,2.5-4.4c0-6.7-0.3-13.1-0.8-19l0,0l0,0c-0.3-2.6-2.1-4.3-4.8-4.5
							l0,0l0,0C428.8,45.2,420.3,45,407.8,45L407.8,45z"/>
					</g>
				</g>
				<g>
					<g>
						<path class="st8" d="M483.8,110.1c-4.2,0-7.4-0.1-9.7-0.4c-1-0.2-1.8-0.6-2.4-1.2c-0.6-0.7-0.9-1.5-0.9-2.4v-0.3
							c0.1-1.2,0.1-2.2,0.1-3.3c0-1.8-0.1-3.6-0.3-5.3c-0.2-1.3-1-3.1-5.2-3.3h-3.2c-4.1,0.1-4.8,2-5,3.3c-0.2,1.5-0.3,3.1-0.3,4.8
							c0,1.2,0.1,2.5,0.2,3.7l0,0.3c0,0.9-0.4,1.7-1,2.4c-0.6,0.6-1.4,1-2.3,1.2l-0.1,0c-2.3,0.2-5.9,0.4-10.5,0.4
							c-2.9,0-6-0.1-9.2-0.3c-1.2-0.2-2.1-0.6-2.6-1.2c-0.5-0.6-0.8-1.4-0.8-2.2c0-0.3,0-0.6,0.1-0.9c1.7-9.7,4.2-19.9,7.5-30.3
							c3.3-10.4,6.6-19.2,9.9-26.2c0.3-0.9,1.1-1.9,3.1-2.2c2.2-0.2,6.5-0.4,12.6-0.4c6.2,0,10.5,0.1,12.8,0.4
							c2,0.3,2.8,1.4,3.1,2.2c3.3,6.9,6.6,15.7,9.9,26.1c3.3,10.4,5.8,20.7,7.5,30.6c0.1,0.2,0.1,0.5,0.1,0.8c0,0.8-0.3,1.6-0.8,2.2
							c-0.6,0.7-1.4,1-2.5,1.1C491.6,110,488.2,110.1,483.8,110.1z M463.6,67.2c-1.2,5.3-2.2,9.9-2.7,13.7l0,0.1l0,0.1
							c-0.1,0.2-0.1,0.4-0.1,0.5c0,0.3,0.1,0.5,0.3,0.6l0.1,0l0.1,0.1c0.3,0.4,1,0.6,2,0.6l1.6,0c2.3-0.1,2.3-0.9,2.3-1.1
							c0-0.2,0-0.5-0.1-0.8l0-0.1l0-0.1c-0.5-3.6-1.4-8.2-2.8-13.8c-0.1-0.2-0.1-0.4-0.2-0.5C463.8,66.8,463.7,67,463.6,67.2z"/>
					</g>
					<g>
						<path d="M463.8,47.6c6.2,0,10.5,0.1,12.7,0.3c1.1,0.2,1.8,0.7,2.1,1.5c3.3,6.9,6.6,15.6,9.9,26c3.3,10.4,5.8,20.5,7.4,30.4
							c0.1,0.2,0.1,0.4,0.1,0.6c0,0.5-0.2,1-0.5,1.4c-0.3,0.4-0.9,0.6-1.6,0.7c-2.2,0.2-5.6,0.3-9.9,0.3c-4.1,0-7.3-0.1-9.6-0.3
							c-0.6-0.1-1.2-0.4-1.6-0.8c-0.4-0.4-0.6-0.9-0.6-1.5c0-0.1,0-0.2,0-0.3c0.1-1.1,0.1-2.2,0.1-3.3c0-1.8-0.1-3.7-0.3-5.4
							c-0.5-2.8-2.6-4.3-6.4-4.4h-3.3c-3.7,0.1-5.8,1.6-6.3,4.4c-0.2,1.6-0.3,3.3-0.3,5c0,1.3,0.1,2.5,0.2,3.8c0,0.1,0,0.1,0,0.2
							c0,0.6-0.2,1.1-0.6,1.5c-0.4,0.4-1,0.7-1.6,0.8c-2.3,0.2-5.8,0.3-10.4,0.3c-2.9,0-6-0.1-9.1-0.3c-0.8-0.1-1.4-0.4-1.7-0.8
							c-0.3-0.4-0.5-0.9-0.5-1.4c0-0.2,0-0.4,0.1-0.6c1.7-9.7,4.2-19.8,7.5-30.2c3.3-10.4,6.6-19.1,9.9-26.1c0.3-0.8,1-1.3,2.1-1.5
							C453.5,47.7,457.6,47.6,463.8,47.6 M463.1,84.3h1.6c2.4-0.1,3.5-0.9,3.5-2.4c0-0.3-0.1-0.7-0.2-1.1c-0.5-3.7-1.4-8.3-2.9-13.9
							c-0.4-1.4-0.9-2.1-1.4-2.1c-0.5,0-1,0.7-1.5,2.1c-1.3,5.4-2.2,10-2.8,13.9c-0.1,0.3-0.2,0.7-0.2,1c0,0.6,0.2,1.2,0.7,1.6
							C460.7,83.9,461.7,84.3,463.1,84.3 M463.8,45c-6.3,0-10.5,0.1-12.7,0.4l-0.1,0l-0.1,0c-2.6,0.4-3.6,2-4,3
							c-3.3,7-6.7,15.9-10,26.3c-3.3,10.4-5.9,20.7-7.5,30.5c-0.1,0.4-0.1,0.8-0.1,1.1c0,1.1,0.4,2.2,1.1,3.1
							c0.8,0.9,1.9,1.4,3.3,1.6l0.1,0l0.1,0c3.2,0.2,6.3,0.4,9.3,0.4c4.7,0,8.2-0.1,10.6-0.4l0.1,0l0.1,0c1.2-0.2,2.1-0.7,3-1.5
							c0.9-0.9,1.4-2.1,1.4-3.3v-0.2v-0.1l0-0.1c-0.1-1.2-0.2-2.4-0.2-3.6c0-1.6,0.1-3.2,0.3-4.6c0.1-0.7,0.3-2.1,3.8-2.2h3.2
							c3.4,0.1,3.8,1.4,3.9,2.2c0.2,1.7,0.2,3.4,0.2,5.1c0,1,0,2.1-0.1,3.2l0,0.1v0.1v0.3c0,1.2,0.4,2.4,1.3,3.3
							c0.8,0.8,1.8,1.4,3,1.6l0.1,0l0.1,0c2.3,0.2,5.6,0.4,9.9,0.4c4.4,0,7.8-0.1,10.2-0.4c1.8-0.1,2.8-0.9,3.4-1.6
							c0.7-0.9,1.1-1.9,1.1-3c0-0.3,0-0.7-0.1-1.1c-1.7-9.9-4.2-20.2-7.5-30.6c-3.3-10.4-6.6-19.2-9.9-26.2c-0.4-1-1.4-2.6-4-3
							l-0.1,0l-0.1,0C474.4,45.2,470.1,45,463.8,45L463.8,45z M462.1,81.6l0.1-0.2l0-0.2c0.4-2.7,1-5.8,1.7-9.2
							c0.8,3.5,1.4,6.6,1.7,9.1l0,0.2l0.1,0.2c0,0.1,0,0.1,0,0.1c-0.2,0.1-0.5,0.1-1,0.1h-1.5C462.5,81.7,462.2,81.6,462.1,81.6
							L462.1,81.6z"/>
					</g>
				</g>
				<g>
					<g>
						<path class="st8" d="M526.4,110.4c-3.7,0-8.2-0.4-13.4-1c-5.2-0.7-9.7-1.6-13.3-2.7c-1.7-0.6-2.6-2-2.6-3.8
							c-0.2-6.4-0.4-11.8-0.4-16.1c0-1.9,0.6-3,1.8-3.4c0.8-0.3,1.3-0.4,1.7-0.4c1,0,1.9,0.4,2.7,1.3c5.1,4.4,11.5,6.6,19,6.6
							c2.6,0,4.5-0.4,5.7-1.1c1.1-0.7,1.6-1.5,1.6-2.6c0-0.3,0-1.2-1.6-2.3c-1.3-0.9-3.1-1.6-5.2-2.2c-2.3-0.6-4.8-1.4-7.4-2.4
							c-2.7-1-5.2-2-7.4-3.1c-2.4-1.2-4.5-2.9-6.1-5.2c-1.6-2.3-2.5-5-2.5-8.1c0-11.8,9.3-17.8,27.6-17.8c8.5,0,16.1,0.9,22.6,2.8
							l0.1,0l0.1,0c1.5,0.6,2.4,1.8,2.6,3.4c0.1,0.9,0.2,3,0.5,6.4c0.3,3.4,0.4,5.9,0.5,7.5l0,0.3c0,1.7-0.5,2.8-1.5,3.3
							c-0.7,0.4-1.3,0.5-1.8,0.5c-0.8,0-1.7-0.4-2.4-1.2c-4.5-3-9.4-4.5-14.7-4.6h-0.6c-2.5,0-4.7,0.3-6.4,1c-2,0.8-2,1.7-2,2
							c0,1.1,1.4,1.9,2.6,2.5c2.2,1,4.9,1.8,8.1,2.7c3.2,0.8,6.6,1.9,9.8,3.1c3.4,1.2,6.4,3.2,8.8,5.8c2.5,2.7,3.7,6,3.7,9.9
							c-0.1,6.2-2.8,11-8.2,14.3C543.1,108.8,535.7,110.4,526.4,110.4z"/>
					</g>
					<g>
						<path d="M526.5,47.3c8.4,0,15.8,0.9,22.2,2.8c1.1,0.5,1.7,1.2,1.8,2.3c0.1,0.9,0.2,3,0.5,6.4c0.3,3.4,0.4,5.9,0.5,7.5
							c0,0.1,0,0.1,0,0.3c0,1.2-0.3,1.9-0.8,2.1c-0.5,0.3-0.9,0.4-1.2,0.4c-0.5,0-1-0.3-1.6-0.9c-4.7-3.2-9.9-4.8-15.6-4.9
							c-0.2,0-0.4,0-0.6,0c-2.7,0-5,0.4-6.9,1.1c-1.9,0.7-2.8,1.8-2.8,3.2c0,1.4,1.1,2.7,3.4,3.6c2.3,1,5,1.9,8.3,2.7
							c3.2,0.8,6.5,1.8,9.7,3c3.3,1.2,6,3,8.3,5.4c2.2,2.5,3.4,5.5,3.4,9c-0.1,5.7-2.6,10.1-7.6,13.2c-5,3.1-12,4.6-21.1,4.6
							c-3.7,0-8.1-0.3-13.2-1c-5.1-0.7-9.5-1.6-13.1-2.7c-1.1-0.4-1.6-1.3-1.6-2.6c-0.2-6.4-0.4-11.8-0.4-16.2c0-1.3,0.3-2,0.9-2.2
							c0.6-0.2,1-0.3,1.3-0.3c0.6,0,1.2,0.3,1.8,1c5.4,4.7,12,7,19.9,7c2.8,0,5-0.4,6.4-1.3c1.4-0.9,2.2-2.1,2.2-3.7
							c0-1.3-0.7-2.4-2.2-3.4c-1.5-1-3.3-1.8-5.6-2.4c-2.2-0.6-4.7-1.4-7.3-2.3c-2.6-1-5.1-2-7.3-3.1c-2.2-1.1-4.1-2.7-5.6-4.8
							c-1.5-2.1-2.2-4.6-2.2-7.4C500.2,52.8,508.9,47.3,526.5,47.3 M526.5,44.7c-9.4,0-16.3,1.5-21.1,4.5c-5.2,3.2-7.8,8.1-7.8,14.6
							c0,3.4,0.9,6.3,2.7,8.9c1.7,2.4,4,4.3,6.6,5.6c2.3,1.1,4.9,2.2,7.6,3.2c2.7,1,5.2,1.8,7.5,2.4c2,0.5,3.6,1.2,4.8,2
							c0.4,0.3,1.1,0.8,1.1,1.2c0,0.6-0.2,1-0.9,1.5c-0.7,0.4-2.1,1-5,1c-7.3,0-13.2-2.1-18.1-6.3c-1.3-1.4-2.7-1.7-3.6-1.7
							c-0.5,0-1.1,0.1-2.1,0.4c-1,0.3-2.7,1.4-2.7,4.6c0.1,4.4,0.2,9.8,0.4,16.2c0,2.4,1.2,4.2,3.3,4.9l0.1,0l0.1,0
							c3.7,1.1,8.3,2.1,13.5,2.8c5.2,0.7,9.8,1.1,13.6,1.1c9.5,0,17.1-1.7,22.5-5c5.8-3.6,8.7-8.7,8.8-15.3c0-4.2-1.4-7.9-4-10.8
							c-2.5-2.7-5.6-4.8-9.3-6.1c-3.3-1.2-6.7-2.2-10-3.1c-3.1-0.8-5.7-1.7-7.9-2.6c-1.5-0.7-1.9-1.2-1.9-1.3c0-0.2,0.4-0.5,1.2-0.8
							c1.6-0.6,3.6-0.9,5.9-0.9h0.6c5,0.1,9.7,1.6,13.9,4.3c1.2,1.2,2.4,1.5,3.2,1.5c0.7,0,1.5-0.2,2.4-0.7c1-0.5,2.2-1.7,2.2-4.4
							v-0.3v0l0,0c-0.1-1.6-0.2-4.2-0.5-7.6c-0.3-3.6-0.4-5.5-0.5-6.3l0-0.1l0-0.1c-0.2-2-1.4-3.6-3.4-4.4l-0.1-0.1l-0.1,0
							C542.8,45.7,535.1,44.7,526.5,44.7L526.5,44.7z"/>
					</g>
				</g>
				<g>
					<g>
						<path class="st8" d="M606.5,110.1c-4.5,0-7.9-0.1-10.1-0.4c-2.3-0.3-3.6-1.7-3.6-3.7v-0.6l0-0.1c0.8-8.3,1.2-13.6,1.2-15.9
							c0-1.7-0.5-3.5-4.4-3.6l-3.2,0c-3.7,0.1-4.2,1.9-4.2,3.6c0,3.5,0.4,8.8,1.2,15.8l0,0.1v0.5c0,1-0.4,1.9-1,2.6
							c-0.6,0.6-1.5,1-2.5,1.2c-2.4,0.2-5.8,0.4-10.3,0.4c-3.8,0-6.9-0.1-9.2-0.4c-1.1-0.2-1.9-0.5-2.6-1.1
							c-0.8-0.7-1.2-1.6-1.2-2.6c0-24.1,0.8-42.9,2.3-55.9c0.1-1.1,0.8-2.9,3.7-3.4c2.2-0.2,4.7-0.4,7.7-0.4c4.1,0,7.2,0.1,9.3,0.4
							c1.2,0.2,2,0.6,2.7,1.4c0.6,0.7,0.9,1.5,0.9,2.4V51l0,0.1c-0.7,5.3-1.1,10.7-1.1,15.8c0,1.7,0.5,3.5,4.4,3.5h0.1l0.1,0
							c0.5,0.1,1,0.1,1.4,0.1s0.9,0,1.4-0.1l0.1,0h0.1c3.9,0,4.4-1.8,4.4-3.5c0-2.6-0.3-7.9-1-15.9l0-0.1v-0.4
							c0-2.1,1.3-3.5,3.5-3.9c1.8-0.2,4.8-0.3,9.5-0.3c2.7,0,5.3,0.1,7.5,0.3l0.1,0l0.1,0c2.8,0.5,3.5,2.4,3.6,3.4
							c1.5,13,2.3,31.8,2.3,55.9c0,1.1-0.4,2-1.2,2.6c-0.7,0.6-1.5,1-2.5,1.1C613.5,110,610.4,110.1,606.5,110.1z"/>
					</g>
					<g>
						<path d="M606,47.6c2.7,0,5.2,0.1,7.4,0.3c1.6,0.3,2.4,1.1,2.6,2.3c1.5,13,2.2,31.6,2.2,55.7c0,0.7-0.2,1.3-0.7,1.7
							c-0.5,0.4-1.1,0.7-1.9,0.8c-2.2,0.2-5.3,0.3-9.2,0.3c-4.5,0-7.8-0.1-9.9-0.3c-1.6-0.2-2.4-1-2.4-2.4c0-0.2,0-0.3,0-0.5
							c0.8-8.4,1.2-13.7,1.2-16c0-3.2-1.9-4.8-5.6-4.9h-3.3c-3.6,0.1-5.4,1.8-5.4,4.9c0,3.5,0.4,8.8,1.2,16c0,0.2,0,0.3,0,0.4
							c0,0.7-0.2,1.3-0.6,1.7c-0.4,0.4-1,0.7-1.8,0.8c-2.2,0.2-5.6,0.3-10.1,0.3c-3.8,0-6.8-0.1-9.1-0.3c-0.7-0.1-1.4-0.4-1.9-0.8
							c-0.5-0.4-0.7-1-0.7-1.7c0-24.1,0.7-42.7,2.2-55.7c0.2-1.3,1-2,2.6-2.2c2.1-0.2,4.6-0.3,7.5-0.3c4,0,7.1,0.1,9.2,0.3
							c0.8,0.1,1.4,0.4,1.8,0.9c0.4,0.5,0.6,1,0.6,1.6c0,0.1,0,0.3,0,0.4c-0.7,5.4-1.1,10.7-1.1,16c0,3.2,1.9,4.8,5.7,4.8
							c0.5,0.1,1,0.1,1.6,0.1c0.5,0,1,0,1.6-0.1c3.8,0,5.7-1.6,5.7-4.8c0-2.6-0.3-8-1-16c0-0.2,0-0.3,0-0.4c0-1.4,0.8-2.3,2.4-2.6
							C598.4,47.7,601.5,47.6,606,47.6 M606,45c-4.7,0-7.8,0.1-9.5,0.3l-0.1,0l-0.1,0c-2.8,0.5-4.5,2.4-4.5,5.1v0.4V51l0,0.1
							c0.7,7.9,1,13.2,1,15.8c0,1,0,2.2-3.1,2.2h-0.1l-0.1,0c-0.4,0-0.8,0.1-1.3,0.1s-0.9,0-1.3-0.1l-0.1,0h-0.1
							c-3.1,0-3.1-1.2-3.1-2.2c0.1-5.1,0.4-10.4,1.1-15.7l0-0.2v-0.2v-0.4c0-1.2-0.4-2.3-1.2-3.2c-0.6-0.7-1.6-1.6-3.4-1.8l0,0l0,0
							c-2.2-0.2-5.3-0.4-9.4-0.4c-3,0-5.6,0.1-7.8,0.4l0,0l0,0c-2.7,0.4-4.4,2-4.8,4.4l0,0l0,0c-1.5,13-2.3,31.9-2.3,56
							c0,1.4,0.6,2.7,1.6,3.6c0.9,0.8,1.9,1.2,3.2,1.4l0.1,0l0.1,0c2.3,0.2,5.5,0.4,9.3,0.4c4.6,0,8-0.1,10.4-0.4l0.1,0l0.1,0
							c1.3-0.2,2.4-0.7,3.2-1.5c0.9-0.9,1.4-2.1,1.4-3.5v-0.4v-0.1l0-0.1c-0.8-7-1.2-12.3-1.2-15.7c0-1.1,0-2.3,2.9-2.4h3.2
							c3.1,0.1,3.1,1.3,3.1,2.4c0,2.2-0.4,7.5-1.2,15.7l0,0.1v0.1v0.5c0,2.7,1.7,4.5,4.6,5l0,0l0,0c2.3,0.2,5.6,0.4,10.2,0.4
							c3.9,0,7.1-0.1,9.4-0.4l0.1,0l0.1,0c1.2-0.2,2.3-0.7,3.2-1.4c1.1-0.9,1.6-2.2,1.6-3.6c0-24.1-0.8-43-2.3-56l0,0l0,0
							c-0.3-2.4-2-4-4.7-4.5l-0.1,0l-0.1,0C611.3,45.1,608.8,45,606,45L606,45z"/>
					</g>
				</g>
			</g>
			<g>
				<polygon points="311.9,116.4 318.3,108.2 309.8,110.7 				"/>
			</g>
			<g>
				<polygon points="425.5,79.4 434.2,73.2 424.8,66.8 				"/>
			</g>
			<g>
				<polygon points="409.5,116.7 420.9,110.3 407.4,110.3 				"/>
			</g>
			<g>
				<polygon points="444.4,116.7 455.5,110.4 442.7,110.6 				"/>
			</g>
			<g>
				<path d="M485.2,116.4l6.6-6.2c0,0-8.7-0.1-8.6,0.1C483.2,110.7,485.2,116.4,485.2,116.4z"/>
			</g>
			<g>
				<polygon points="439.4,57.4 447.7,47.1 443.8,57.7 				"/>
			</g>
			<g>
				<path d="M571,116.6l11.1-6.2c0,0-12.9-0.4-12.7-0.1C569.7,110.7,571,116.6,571,116.6z"/>
			</g>
			<g>
				<polygon points="552.2,56.6 558.6,47.8 558.1,57.4 				"/>
			</g>
			<g>
				<polygon points="584.4,57.6 592.9,47.1 593.2,57.6 				"/>
			</g>
			<g>
				<polygon points="607,116.6 618.2,110.3 607.1,110.7 				"/>
			</g>
		</g>
		<g>
			<polygon points="493.7,62.4 501.1,52.9 499.8,61.1 			"/>
		</g>
	</g>
	<g>
		<polygon points="372.9,107.1 362,113.2 365.5,108.6 		"/>
	</g>
</g>
<g id="Layer_2" class="st9">
</g>
</svg>
